<?xml version="1.0" ?><!DOCTYPE svg  PUBLIC '-//W3C//DTD SVG 1.1//EN'  'http://www.w3.org/Graphics/SVG/1.1/DTD/svg11.dtd'><svg xmlns="http://www.w3.org/2000/svg" width="356.000" height="557.000" viewBox="-335.000 -533.000 356.000 557.000"><polygon points="0.0,0.0 0.0,0.0 0.0,0.0" fill="none" fill-rule="evenodd" stroke-linejoin="round"/><line x1="-314.0" y1="-3.3333333333333335" x2="-314.0" y2="-33.333333333333336" stroke="#000" fill="none" stroke-width="10.0" stroke-linecap="round"/><line x1="-314.0" y1="-33.333333333333336" x2="-314.0" y2="-43.333333333333336" stroke="#fff" fill="none" stroke-width="10.0" stroke-linecap="round"/><polyline points="-314.0,-43.333333333333336 -314.0,-53.333333333333336 -314.0,-153.33333333333334 -314.0,-183.33333333333334" stroke="#000" fill="none" stroke-width="10.0" stroke-linecap="round" stroke-linejoin="round"/><line x1="-314.0" y1="-183.33333333333334" x2="-314.0" y2="-193.33333333333334" stroke="#808080" fill="none" stroke-width="10.0" stroke-linecap="round"/><line x1="-314.0" y1="-193.33333333333334" x2="-314.0" y2="-243.33333333333334" stroke="#f00" fill="none" stroke-width="10.0" stroke-linecap="round"/><line x1="-314.0" y1="-243.33333333333334" x2="-314.0" y2="-253.33333333333334" stroke="#000" fill="none" stroke-width="10.0" stroke-linecap="round"/><line x1="-314.0" y1="-253.33333333333334" x2="-314.0" y2="-303.33333333333337" stroke="#808080" fill="none" stroke-width="10.0" stroke-linecap="round"/><line x1="-314.0" y1="-303.33333333333337" x2="-314.0" y2="-313.33333333333337" stroke="#f00" fill="none" stroke-width="10.0" stroke-linecap="round"/><polyline points="-314.0,-313.33333333333337 -314.0,-343.33333333333337 -314.0,-453.33333333333337 -314.0,-463.33333333333337" stroke="#000" fill="none" stroke-width="10.0" stroke-linecap="round" stroke-linejoin="round"/><line x1="-314.0" y1="-463.33333333333337" x2="-314.0" y2="-473.33333333333337" stroke="#fff" fill="none" stroke-width="10.0" stroke-linecap="round"/><line x1="-314.0" y1="-473.33333333333337" x2="-314.0" y2="-503.33333333333337" stroke="#000" fill="none" stroke-width="10.0" stroke-linecap="round"/><line x1="-314.0" y1="-503.33333333333337" x2="-314.0" y2="-513.3333333333334" stroke="#fff" fill="none" stroke-width="10.0" stroke-linecap="round"/><line x1="-304.0" y1="-0.0" x2="-304.0" y2="-30.0" stroke="#000" fill="none" stroke-width="10.0" stroke-linecap="round"/><line x1="-304.0" y1="-30.0" x2="-304.0" y2="-40.0" stroke="#fff" fill="none" stroke-width="10.0" stroke-linecap="round"/><polyline points="-304.0,-40.0 -304.0,-50.0 -304.0,-150.0 -304.0,-170.0" stroke="#000" fill="none" stroke-width="10.0" stroke-linecap="round" stroke-linejoin="round"/><line x1="-304.0" y1="-170.0" x2="-304.0" y2="-200.0" stroke="#808080" fill="none" stroke-width="10.0" stroke-linecap="round"/><line x1="-304.0" y1="-200.0" x2="-304.0" y2="-230.0" stroke="#f00" fill="none" stroke-width="10.0" stroke-linecap="round"/><line x1="-304.0" y1="-230.0" x2="-304.0" y2="-260.0" stroke="#000" fill="none" stroke-width="10.0" stroke-linecap="round"/><line x1="-304.0" y1="-260.0" x2="-304.0" y2="-290.0" stroke="#808080" fill="none" stroke-width="10.0" stroke-linecap="round"/><line x1="-304.0" y1="-290.0" x2="-304.0" y2="-320.0" stroke="#f00" fill="none" stroke-width="10.0" stroke-linecap="round"/><polyline points="-304.0,-320.0 -304.0,-340.0 -304.0,-450.0 -304.0,-460.0" stroke="#000" fill="none" stroke-width="10.0" stroke-linecap="round" stroke-linejoin="round"/><line x1="-304.0" y1="-460.0" x2="-304.0" y2="-470.0" stroke="#fff" fill="none" stroke-width="10.0" stroke-linecap="round"/><line x1="-304.0" y1="-470.0" x2="-304.0" y2="-500.0" stroke="#000" fill="none" stroke-width="10.0" stroke-linecap="round"/><line x1="-304.0" y1="-500.0" x2="-304.0" y2="-510.0" stroke="#fff" fill="none" stroke-width="10.0" stroke-linecap="round"/><line x1="-294.0" y1="3.3333333333333335" x2="-294.0" y2="-26.666666666666668" stroke="#000" fill="none" stroke-width="10.0" stroke-linecap="round"/><line x1="-294.0" y1="-26.666666666666668" x2="-294.0" y2="-36.66666666666667" stroke="#fff" fill="none" stroke-width="10.0" stroke-linecap="round"/><polyline points="-294.0,-36.66666666666667 -294.0,-46.66666666666667 -294.0,-146.66666666666669 -294.0,-156.66666666666669" stroke="#000" fill="none" stroke-width="10.0" stroke-linecap="round" stroke-linejoin="round"/><line x1="-294.0" y1="-156.66666666666669" x2="-294.0" y2="-206.66666666666669" stroke="#808080" fill="none" stroke-width="10.0" stroke-linecap="round"/><line x1="-294.0" y1="-206.66666666666669" x2="-294.0" y2="-216.66666666666669" stroke="#f00" fill="none" stroke-width="10.0" stroke-linecap="round"/><line x1="-294.0" y1="-216.66666666666669" x2="-294.0" y2="-266.6666666666667" stroke="#000" fill="none" stroke-width="10.0" stroke-linecap="round"/><line x1="-294.0" y1="-266.6666666666667" x2="-294.0" y2="-276.6666666666667" stroke="#808080" fill="none" stroke-width="10.0" stroke-linecap="round"/><line x1="-294.0" y1="-276.6666666666667" x2="-294.0" y2="-326.6666666666667" stroke="#f00" fill="none" stroke-width="10.0" stroke-linecap="round"/><polyline points="-294.0,-326.6666666666667 -294.0,-336.6666666666667 -294.0,-446.6666666666667 -294.0,-456.6666666666667" stroke="#000" fill="none" stroke-width="10.0" stroke-linecap="round" stroke-linejoin="round"/><line x1="-294.0" y1="-456.6666666666667" x2="-294.0" y2="-466.6666666666667" stroke="#fff" fill="none" stroke-width="10.0" stroke-linecap="round"/><line x1="-294.0" y1="-466.6666666666667" x2="-294.0" y2="-496.6666666666667" stroke="#000" fill="none" stroke-width="10.0" stroke-linecap="round"/><line x1="-294.0" y1="-496.6666666666667" x2="-294.0" y2="-506.6666666666667" stroke="#fff" fill="none" stroke-width="10.0" stroke-linecap="round"/><line x1="-284.0" y1="-0.0" x2="-284.0" y2="-30.0" stroke="#000" fill="none" stroke-width="10.0" stroke-linecap="round"/><line x1="-284.0" y1="-30.0" x2="-284.0" y2="-40.0" stroke="#fff" fill="none" stroke-width="10.0" stroke-linecap="round"/><polyline points="-284.0,-40.0 -284.0,-50.0 -284.0,-150.0 -284.0,-170.0" stroke="#000" fill="none" stroke-width="10.0" stroke-linecap="round" stroke-linejoin="round"/><line x1="-284.0" y1="-170.0" x2="-284.0" y2="-200.0" stroke="#808080" fill="none" stroke-width="10.0" stroke-linecap="round"/><line x1="-284.0" y1="-200.0" x2="-284.0" y2="-230.0" stroke="#f00" fill="none" stroke-width="10.0" stroke-linecap="round"/><line x1="-284.0" y1="-230.0" x2="-284.0" y2="-260.0" stroke="#000" fill="none" stroke-width="10.0" stroke-linecap="round"/><line x1="-284.0" y1="-260.0" x2="-284.0" y2="-290.0" stroke="#808080" fill="none" stroke-width="10.0" stroke-linecap="round"/><line x1="-284.0" y1="-290.0" x2="-284.0" y2="-320.0" stroke="#f00" fill="none" stroke-width="10.0" stroke-linecap="round"/><polyline points="-284.0,-320.0 -284.0,-340.0 -284.0,-450.0 -284.0,-460.0" stroke="#000" fill="none" stroke-width="10.0" stroke-linecap="round" stroke-linejoin="round"/><line x1="-284.0" y1="-460.0" x2="-284.0" y2="-470.0" stroke="#fff" fill="none" stroke-width="10.0" stroke-linecap="round"/><line x1="-284.0" y1="-470.0" x2="-284.0" y2="-500.0" stroke="#000" fill="none" stroke-width="10.0" stroke-linecap="round"/><line x1="-284.0" y1="-500.0" x2="-284.0" y2="-510.0" stroke="#fff" fill="none" stroke-width="10.0" stroke-linecap="round"/><line x1="-274.0" y1="-3.3333333333333335" x2="-274.0" y2="-33.333333333333336" stroke="#000" fill="none" stroke-width="10.0" stroke-linecap="round"/><line x1="-274.0" y1="-33.333333333333336" x2="-274.0" y2="-43.333333333333336" stroke="#fff" fill="none" stroke-width="10.0" stroke-linecap="round"/><polyline points="-274.0,-43.333333333333336 -274.0,-53.333333333333336 -274.0,-153.33333333333334 -274.0,-183.33333333333334" stroke="#000" fill="none" stroke-width="10.0" stroke-linecap="round" stroke-linejoin="round"/><line x1="-274.0" y1="-183.33333333333334" x2="-274.0" y2="-193.33333333333334" stroke="#808080" fill="none" stroke-width="10.0" stroke-linecap="round"/><line x1="-274.0" y1="-193.33333333333334" x2="-274.0" y2="-243.33333333333334" stroke="#f00" fill="none" stroke-width="10.0" stroke-linecap="round"/><line x1="-274.0" y1="-243.33333333333334" x2="-274.0" y2="-253.33333333333334" stroke="#000" fill="none" stroke-width="10.0" stroke-linecap="round"/><line x1="-274.0" y1="-253.33333333333334" x2="-274.0" y2="-303.33333333333337" stroke="#808080" fill="none" stroke-width="10.0" stroke-linecap="round"/><line x1="-274.0" y1="-303.33333333333337" x2="-274.0" y2="-313.33333333333337" stroke="#f00" fill="none" stroke-width="10.0" stroke-linecap="round"/><polyline points="-274.0,-313.33333333333337 -274.0,-343.33333333333337 -274.0,-453.33333333333337 -274.0,-463.33333333333337" stroke="#000" fill="none" stroke-width="10.0" stroke-linecap="round" stroke-linejoin="round"/><line x1="-274.0" y1="-463.33333333333337" x2="-274.0" y2="-473.33333333333337" stroke="#fff" fill="none" stroke-width="10.0" stroke-linecap="round"/><line x1="-274.0" y1="-473.33333333333337" x2="-274.0" y2="-503.33333333333337" stroke="#000" fill="none" stroke-width="10.0" stroke-linecap="round"/><line x1="-274.0" y1="-503.33333333333337" x2="-274.0" y2="-513.3333333333334" stroke="#fff" fill="none" stroke-width="10.0" stroke-linecap="round"/><line x1="-264.0" y1="-0.0" x2="-264.0" y2="-30.0" stroke="#000" fill="none" stroke-width="10.0" stroke-linecap="round"/><line x1="-264.0" y1="-30.0" x2="-264.0" y2="-40.0" stroke="#fff" fill="none" stroke-width="10.0" stroke-linecap="round"/><polyline points="-264.0,-40.0 -264.0,-50.0 -264.0,-150.0 -264.0,-170.0" stroke="#000" fill="none" stroke-width="10.0" stroke-linecap="round" stroke-linejoin="round"/><line x1="-264.0" y1="-170.0" x2="-264.0" y2="-200.0" stroke="#808080" fill="none" stroke-width="10.0" stroke-linecap="round"/><line x1="-264.0" y1="-200.0" x2="-264.0" y2="-230.0" stroke="#f00" fill="none" stroke-width="10.0" stroke-linecap="round"/><line x1="-264.0" y1="-230.0" x2="-264.0" y2="-260.0" stroke="#000" fill="none" stroke-width="10.0" stroke-linecap="round"/><line x1="-264.0" y1="-260.0" x2="-264.0" y2="-290.0" stroke="#808080" fill="none" stroke-width="10.0" stroke-linecap="round"/><line x1="-264.0" y1="-290.0" x2="-264.0" y2="-320.0" stroke="#f00" fill="none" stroke-width="10.0" stroke-linecap="round"/><polyline points="-264.0,-320.0 -264.0,-340.0 -264.0,-450.0 -264.0,-460.0" stroke="#000" fill="none" stroke-width="10.0" stroke-linecap="round" stroke-linejoin="round"/><line x1="-264.0" y1="-460.0" x2="-264.0" y2="-470.0" stroke="#fff" fill="none" stroke-width="10.0" stroke-linecap="round"/><line x1="-264.0" y1="-470.0" x2="-264.0" y2="-500.0" stroke="#000" fill="none" stroke-width="10.0" stroke-linecap="round"/><line x1="-264.0" y1="-500.0" x2="-264.0" y2="-510.0" stroke="#fff" fill="none" stroke-width="10.0" stroke-linecap="round"/><line x1="-254.0" y1="3.3333333333333335" x2="-254.0" y2="-26.666666666666668" stroke="#000" fill="none" stroke-width="10.0" stroke-linecap="round"/><line x1="-254.0" y1="-26.666666666666668" x2="-254.0" y2="-36.66666666666667" stroke="#fff" fill="none" stroke-width="10.0" stroke-linecap="round"/><polyline points="-254.0,-36.66666666666667 -254.0,-46.66666666666667 -254.0,-146.66666666666669 -254.0,-156.66666666666669" stroke="#000" fill="none" stroke-width="10.0" stroke-linecap="round" stroke-linejoin="round"/><line x1="-254.0" y1="-156.66666666666669" x2="-254.0" y2="-206.66666666666669" stroke="#808080" fill="none" stroke-width="10.0" stroke-linecap="round"/><line x1="-254.0" y1="-206.66666666666669" x2="-254.0" y2="-216.66666666666669" stroke="#f00" fill="none" stroke-width="10.0" stroke-linecap="round"/><line x1="-254.0" y1="-216.66666666666669" x2="-254.0" y2="-266.6666666666667" stroke="#000" fill="none" stroke-width="10.0" stroke-linecap="round"/><line x1="-254.0" y1="-266.6666666666667" x2="-254.0" y2="-276.6666666666667" stroke="#808080" fill="none" stroke-width="10.0" stroke-linecap="round"/><line x1="-254.0" y1="-276.6666666666667" x2="-254.0" y2="-326.6666666666667" stroke="#f00" fill="none" stroke-width="10.0" stroke-linecap="round"/><polyline points="-254.0,-326.6666666666667 -254.0,-336.6666666666667 -254.0,-446.6666666666667 -254.0,-456.6666666666667" stroke="#000" fill="none" stroke-width="10.0" stroke-linecap="round" stroke-linejoin="round"/><line x1="-254.0" y1="-456.6666666666667" x2="-254.0" y2="-466.6666666666667" stroke="#fff" fill="none" stroke-width="10.0" stroke-linecap="round"/><line x1="-254.0" y1="-466.6666666666667" x2="-254.0" y2="-496.6666666666667" stroke="#000" fill="none" stroke-width="10.0" stroke-linecap="round"/><line x1="-254.0" y1="-496.6666666666667" x2="-254.0" y2="-506.6666666666667" stroke="#fff" fill="none" stroke-width="10.0" stroke-linecap="round"/><line x1="-244.0" y1="-0.0" x2="-244.0" y2="-30.0" stroke="#000" fill="none" stroke-width="10.0" stroke-linecap="round"/><line x1="-244.0" y1="-30.0" x2="-244.0" y2="-40.0" stroke="#fff" fill="none" stroke-width="10.0" stroke-linecap="round"/><polyline points="-244.0,-40.0 -244.0,-50.0 -244.0,-150.0 -244.0,-170.0" stroke="#000" fill="none" stroke-width="10.0" stroke-linecap="round" stroke-linejoin="round"/><line x1="-244.0" y1="-170.0" x2="-244.0" y2="-200.0" stroke="#808080" fill="none" stroke-width="10.0" stroke-linecap="round"/><line x1="-244.0" y1="-200.0" x2="-244.0" y2="-230.0" stroke="#f00" fill="none" stroke-width="10.0" stroke-linecap="round"/><line x1="-244.0" y1="-230.0" x2="-244.0" y2="-260.0" stroke="#000" fill="none" stroke-width="10.0" stroke-linecap="round"/><line x1="-244.0" y1="-260.0" x2="-244.0" y2="-290.0" stroke="#808080" fill="none" stroke-width="10.0" stroke-linecap="round"/><line x1="-244.0" y1="-290.0" x2="-244.0" y2="-320.0" stroke="#f00" fill="none" stroke-width="10.0" stroke-linecap="round"/><polyline points="-244.0,-320.0 -244.0,-340.0 -244.0,-450.0 -244.0,-460.0" stroke="#000" fill="none" stroke-width="10.0" stroke-linecap="round" stroke-linejoin="round"/><line x1="-244.0" y1="-460.0" x2="-244.0" y2="-470.0" stroke="#fff" fill="none" stroke-width="10.0" stroke-linecap="round"/><line x1="-244.0" y1="-470.0" x2="-244.0" y2="-500.0" stroke="#000" fill="none" stroke-width="10.0" stroke-linecap="round"/><line x1="-244.0" y1="-500.0" x2="-244.0" y2="-510.0" stroke="#fff" fill="none" stroke-width="10.0" stroke-linecap="round"/><line x1="-234.0" y1="-3.3333333333333335" x2="-234.0" y2="-33.333333333333336" stroke="#000" fill="none" stroke-width="10.0" stroke-linecap="round"/><line x1="-234.0" y1="-33.333333333333336" x2="-234.0" y2="-43.333333333333336" stroke="#fff" fill="none" stroke-width="10.0" stroke-linecap="round"/><polyline points="-234.0,-43.333333333333336 -234.0,-53.333333333333336 -234.0,-153.33333333333334 -234.0,-183.33333333333334" stroke="#000" fill="none" stroke-width="10.0" stroke-linecap="round" stroke-linejoin="round"/><line x1="-234.0" y1="-183.33333333333334" x2="-234.0" y2="-193.33333333333334" stroke="#808080" fill="none" stroke-width="10.0" stroke-linecap="round"/><line x1="-234.0" y1="-193.33333333333334" x2="-234.0" y2="-243.33333333333334" stroke="#f00" fill="none" stroke-width="10.0" stroke-linecap="round"/><line x1="-234.0" y1="-243.33333333333334" x2="-234.0" y2="-253.33333333333334" stroke="#000" fill="none" stroke-width="10.0" stroke-linecap="round"/><line x1="-234.0" y1="-253.33333333333334" x2="-234.0" y2="-303.33333333333337" stroke="#808080" fill="none" stroke-width="10.0" stroke-linecap="round"/><line x1="-234.0" y1="-303.33333333333337" x2="-234.0" y2="-313.33333333333337" stroke="#f00" fill="none" stroke-width="10.0" stroke-linecap="round"/><polyline points="-234.0,-313.33333333333337 -234.0,-343.33333333333337 -234.0,-453.33333333333337 -234.0,-463.33333333333337" stroke="#000" fill="none" stroke-width="10.0" stroke-linecap="round" stroke-linejoin="round"/><line x1="-234.0" y1="-463.33333333333337" x2="-234.0" y2="-473.33333333333337" stroke="#fff" fill="none" stroke-width="10.0" stroke-linecap="round"/><line x1="-234.0" y1="-473.33333333333337" x2="-234.0" y2="-503.33333333333337" stroke="#000" fill="none" stroke-width="10.0" stroke-linecap="round"/><line x1="-234.0" y1="-503.33333333333337" x2="-234.0" y2="-513.3333333333334" stroke="#fff" fill="none" stroke-width="10.0" stroke-linecap="round"/><line x1="-224.0" y1="-3.3333333333333335" x2="-224.0" y2="-33.333333333333336" stroke="#000" fill="none" stroke-width="10.0" stroke-linecap="round"/><line x1="-224.0" y1="-33.333333333333336" x2="-224.0" y2="-43.333333333333336" stroke="#fff" fill="none" stroke-width="10.0" stroke-linecap="round"/><polyline points="-224.0,-43.333333333333336 -224.0,-53.333333333333336 -224.0,-153.33333333333334 -224.0,-213.33333333333334" stroke="#000" fill="none" stroke-width="10.0" stroke-linecap="round" stroke-linejoin="round"/><line x1="-224.0" y1="-213.33333333333334" x2="-224.0" y2="-233.33333333333334" stroke="#808080" fill="none" stroke-width="10.0" stroke-linecap="round"/><line x1="-224.0" y1="-233.33333333333334" x2="-224.0" y2="-333.33333333333337" stroke="#f00" fill="none" stroke-width="10.0" stroke-linecap="round"/><polyline points="-224.0,-333.33333333333337 -224.0,-353.33333333333337 -224.0,-453.33333333333337 -224.0,-463.33333333333337" stroke="#000" fill="none" stroke-width="10.0" stroke-linecap="round" stroke-linejoin="round"/><line x1="-224.0" y1="-463.33333333333337" x2="-224.0" y2="-473.33333333333337" stroke="#fff" fill="none" stroke-width="10.0" stroke-linecap="round"/><line x1="-224.0" y1="-473.33333333333337" x2="-224.0" y2="-503.33333333333337" stroke="#000" fill="none" stroke-width="10.0" stroke-linecap="round"/><line x1="-224.0" y1="-503.33333333333337" x2="-224.0" y2="-513.3333333333334" stroke="#fff" fill="none" stroke-width="10.0" stroke-linecap="round"/><line x1="-214.0" y1="-0.0" x2="-214.0" y2="-30.0" stroke="#000" fill="none" stroke-width="10.0" stroke-linecap="round"/><line x1="-214.0" y1="-30.0" x2="-214.0" y2="-40.0" stroke="#fff" fill="none" stroke-width="10.0" stroke-linecap="round"/><polyline points="-214.0,-40.0 -214.0,-50.0 -214.0,-150.0 -214.0,-190.0" stroke="#000" fill="none" stroke-width="10.0" stroke-linecap="round" stroke-linejoin="round"/><line x1="-214.0" y1="-190.0" x2="-214.0" y2="-250.0" stroke="#808080" fill="none" stroke-width="10.0" stroke-linecap="round"/><line x1="-214.0" y1="-250.0" x2="-214.0" y2="-310.0" stroke="#f00" fill="none" stroke-width="10.0" stroke-linecap="round"/><polyline points="-214.0,-310.0 -214.0,-350.0 -214.0,-450.0 -214.0,-460.0" stroke="#000" fill="none" stroke-width="10.0" stroke-linecap="round" stroke-linejoin="round"/><line x1="-214.0" y1="-460.0" x2="-214.0" y2="-470.0" stroke="#fff" fill="none" stroke-width="10.0" stroke-linecap="round"/><line x1="-214.0" y1="-470.0" x2="-214.0" y2="-500.0" stroke="#000" fill="none" stroke-width="10.0" stroke-linecap="round"/><line x1="-214.0" y1="-500.0" x2="-214.0" y2="-510.0" stroke="#fff" fill="none" stroke-width="10.0" stroke-linecap="round"/><line x1="-204.0" y1="3.3333333333333335" x2="-204.0" y2="-26.666666666666668" stroke="#000" fill="none" stroke-width="10.0" stroke-linecap="round"/><line x1="-204.0" y1="-26.666666666666668" x2="-204.0" y2="-36.66666666666667" stroke="#fff" fill="none" stroke-width="10.0" stroke-linecap="round"/><polyline points="-204.0,-36.66666666666667 -204.0,-46.66666666666667 -204.0,-146.66666666666669 -204.0,-166.66666666666669" stroke="#000" fill="none" stroke-width="10.0" stroke-linecap="round" stroke-linejoin="round"/><line x1="-204.0" y1="-166.66666666666669" x2="-204.0" y2="-266.6666666666667" stroke="#808080" fill="none" stroke-width="10.0" stroke-linecap="round"/><line x1="-204.0" y1="-266.6666666666667" x2="-204.0" y2="-286.6666666666667" stroke="#f00" fill="none" stroke-width="10.0" stroke-linecap="round"/><polyline points="-204.0,-286.6666666666667 -204.0,-346.6666666666667 -204.0,-446.6666666666667 -204.0,-456.6666666666667" stroke="#000" fill="none" stroke-width="10.0" stroke-linecap="round" stroke-linejoin="round"/><line x1="-204.0" y1="-456.6666666666667" x2="-204.0" y2="-466.6666666666667" stroke="#fff" fill="none" stroke-width="10.0" stroke-linecap="round"/><line x1="-204.0" y1="-466.6666666666667" x2="-204.0" y2="-496.6666666666667" stroke="#000" fill="none" stroke-width="10.0" stroke-linecap="round"/><line x1="-204.0" y1="-496.6666666666667" x2="-204.0" y2="-506.6666666666667" stroke="#fff" fill="none" stroke-width="10.0" stroke-linecap="round"/><line x1="-194.0" y1="-0.0" x2="-194.0" y2="-30.0" stroke="#000" fill="none" stroke-width="10.0" stroke-linecap="round"/><line x1="-194.0" y1="-30.0" x2="-194.0" y2="-40.0" stroke="#fff" fill="none" stroke-width="10.0" stroke-linecap="round"/><polyline points="-194.0,-40.0 -194.0,-50.0 -194.0,-150.0 -194.0,-190.0" stroke="#000" fill="none" stroke-width="10.0" stroke-linecap="round" stroke-linejoin="round"/><line x1="-194.0" y1="-190.0" x2="-194.0" y2="-250.0" stroke="#808080" fill="none" stroke-width="10.0" stroke-linecap="round"/><line x1="-194.0" y1="-250.0" x2="-194.0" y2="-310.0" stroke="#f00" fill="none" stroke-width="10.0" stroke-linecap="round"/><polyline points="-194.0,-310.0 -194.0,-350.0 -194.0,-450.0 -194.0,-460.0" stroke="#000" fill="none" stroke-width="10.0" stroke-linecap="round" stroke-linejoin="round"/><line x1="-194.0" y1="-460.0" x2="-194.0" y2="-470.0" stroke="#fff" fill="none" stroke-width="10.0" stroke-linecap="round"/><line x1="-194.0" y1="-470.0" x2="-194.0" y2="-500.0" stroke="#000" fill="none" stroke-width="10.0" stroke-linecap="round"/><line x1="-194.0" y1="-500.0" x2="-194.0" y2="-510.0" stroke="#fff" fill="none" stroke-width="10.0" stroke-linecap="round"/><line x1="-184.0" y1="-3.3333333333333335" x2="-184.0" y2="-33.333333333333336" stroke="#000" fill="none" stroke-width="10.0" stroke-linecap="round"/><line x1="-184.0" y1="-33.333333333333336" x2="-184.0" y2="-43.333333333333336" stroke="#fff" fill="none" stroke-width="10.0" stroke-linecap="round"/><polyline points="-184.0,-43.333333333333336 -184.0,-53.333333333333336 -184.0,-153.33333333333334 -184.0,-213.33333333333334" stroke="#000" fill="none" stroke-width="10.0" stroke-linecap="round" stroke-linejoin="round"/><line x1="-184.0" y1="-213.33333333333334" x2="-184.0" y2="-233.33333333333334" stroke="#808080" fill="none" stroke-width="10.0" stroke-linecap="round"/><line x1="-184.0" y1="-233.33333333333334" x2="-184.0" y2="-333.33333333333337" stroke="#f00" fill="none" stroke-width="10.0" stroke-linecap="round"/><polyline points="-184.0,-333.33333333333337 -184.0,-353.33333333333337 -184.0,-453.33333333333337 -184.0,-463.33333333333337" stroke="#000" fill="none" stroke-width="10.0" stroke-linecap="round" stroke-linejoin="round"/><line x1="-184.0" y1="-463.33333333333337" x2="-184.0" y2="-473.33333333333337" stroke="#fff" fill="none" stroke-width="10.0" stroke-linecap="round"/><line x1="-184.0" y1="-473.33333333333337" x2="-184.0" y2="-503.33333333333337" stroke="#000" fill="none" stroke-width="10.0" stroke-linecap="round"/><line x1="-184.0" y1="-503.33333333333337" x2="-184.0" y2="-513.3333333333334" stroke="#fff" fill="none" stroke-width="10.0" stroke-linecap="round"/><line x1="-174.0" y1="-0.0" x2="-174.0" y2="-30.0" stroke="#000" fill="none" stroke-width="10.0" stroke-linecap="round"/><line x1="-174.0" y1="-30.0" x2="-174.0" y2="-40.0" stroke="#fff" fill="none" stroke-width="10.0" stroke-linecap="round"/><polyline points="-174.0,-40.0 -174.0,-50.0 -174.0,-150.0 -174.0,-190.0" stroke="#000" fill="none" stroke-width="10.0" stroke-linecap="round" stroke-linejoin="round"/><line x1="-174.0" y1="-190.0" x2="-174.0" y2="-250.0" stroke="#808080" fill="none" stroke-width="10.0" stroke-linecap="round"/><line x1="-174.0" y1="-250.0" x2="-174.0" y2="-310.0" stroke="#f00" fill="none" stroke-width="10.0" stroke-linecap="round"/><polyline points="-174.0,-310.0 -174.0,-350.0 -174.0,-450.0 -174.0,-460.0" stroke="#000" fill="none" stroke-width="10.0" stroke-linecap="round" stroke-linejoin="round"/><line x1="-174.0" y1="-460.0" x2="-174.0" y2="-470.0" stroke="#fff" fill="none" stroke-width="10.0" stroke-linecap="round"/><line x1="-174.0" y1="-470.0" x2="-174.0" y2="-500.0" stroke="#000" fill="none" stroke-width="10.0" stroke-linecap="round"/><line x1="-174.0" y1="-500.0" x2="-174.0" y2="-510.0" stroke="#fff" fill="none" stroke-width="10.0" stroke-linecap="round"/><line x1="-164.0" y1="3.3333333333333335" x2="-164.0" y2="-26.666666666666668" stroke="#000" fill="none" stroke-width="10.0" stroke-linecap="round"/><line x1="-164.0" y1="-26.666666666666668" x2="-164.0" y2="-36.66666666666667" stroke="#fff" fill="none" stroke-width="10.0" stroke-linecap="round"/><polyline points="-164.0,-36.66666666666667 -164.0,-46.66666666666667 -164.0,-146.66666666666669 -164.0,-166.66666666666669" stroke="#000" fill="none" stroke-width="10.0" stroke-linecap="round" stroke-linejoin="round"/><line x1="-164.0" y1="-166.66666666666669" x2="-164.0" y2="-266.6666666666667" stroke="#808080" fill="none" stroke-width="10.0" stroke-linecap="round"/><line x1="-164.0" y1="-266.6666666666667" x2="-164.0" y2="-286.6666666666667" stroke="#f00" fill="none" stroke-width="10.0" stroke-linecap="round"/><polyline points="-164.0,-286.6666666666667 -164.0,-346.6666666666667 -164.0,-446.6666666666667 -164.0,-456.6666666666667" stroke="#000" fill="none" stroke-width="10.0" stroke-linecap="round" stroke-linejoin="round"/><line x1="-164.0" y1="-456.6666666666667" x2="-164.0" y2="-466.6666666666667" stroke="#fff" fill="none" stroke-width="10.0" stroke-linecap="round"/><line x1="-164.0" y1="-466.6666666666667" x2="-164.0" y2="-496.6666666666667" stroke="#000" fill="none" stroke-width="10.0" stroke-linecap="round"/><line x1="-164.0" y1="-496.6666666666667" x2="-164.0" y2="-506.6666666666667" stroke="#fff" fill="none" stroke-width="10.0" stroke-linecap="round"/><line x1="-154.0" y1="-0.0" x2="-154.0" y2="-30.0" stroke="#000" fill="none" stroke-width="10.0" stroke-linecap="round"/><line x1="-154.0" y1="-30.0" x2="-154.0" y2="-40.0" stroke="#fff" fill="none" stroke-width="10.0" stroke-linecap="round"/><polyline points="-154.0,-40.0 -154.0,-50.0 -154.0,-150.0 -154.0,-190.0" stroke="#000" fill="none" stroke-width="10.0" stroke-linecap="round" stroke-linejoin="round"/><line x1="-154.0" y1="-190.0" x2="-154.0" y2="-250.0" stroke="#808080" fill="none" stroke-width="10.0" stroke-linecap="round"/><line x1="-154.0" y1="-250.0" x2="-154.0" y2="-310.0" stroke="#f00" fill="none" stroke-width="10.0" stroke-linecap="round"/><polyline points="-154.0,-310.0 -154.0,-350.0 -154.0,-450.0 -154.0,-460.0" stroke="#000" fill="none" stroke-width="10.0" stroke-linecap="round" stroke-linejoin="round"/><line x1="-154.0" y1="-460.0" x2="-154.0" y2="-470.0" stroke="#fff" fill="none" stroke-width="10.0" stroke-linecap="round"/><line x1="-154.0" y1="-470.0" x2="-154.0" y2="-500.0" stroke="#000" fill="none" stroke-width="10.0" stroke-linecap="round"/><line x1="-154.0" y1="-500.0" x2="-154.0" y2="-510.0" stroke="#fff" fill="none" stroke-width="10.0" stroke-linecap="round"/><line x1="-144.0" y1="-3.3333333333333335" x2="-144.0" y2="-33.333333333333336" stroke="#000" fill="none" stroke-width="10.0" stroke-linecap="round"/><line x1="-144.0" y1="-33.333333333333336" x2="-144.0" y2="-43.333333333333336" stroke="#fff" fill="none" stroke-width="10.0" stroke-linecap="round"/><polyline points="-144.0,-43.333333333333336 -144.0,-53.333333333333336 -144.0,-153.33333333333334 -144.0,-213.33333333333334" stroke="#000" fill="none" stroke-width="10.0" stroke-linecap="round" stroke-linejoin="round"/><line x1="-144.0" y1="-213.33333333333334" x2="-144.0" y2="-233.33333333333334" stroke="#808080" fill="none" stroke-width="10.0" stroke-linecap="round"/><line x1="-144.0" y1="-233.33333333333334" x2="-144.0" y2="-333.33333333333337" stroke="#f00" fill="none" stroke-width="10.0" stroke-linecap="round"/><polyline points="-144.0,-333.33333333333337 -144.0,-353.33333333333337 -144.0,-453.33333333333337 -144.0,-463.33333333333337" stroke="#000" fill="none" stroke-width="10.0" stroke-linecap="round" stroke-linejoin="round"/><line x1="-144.0" y1="-463.33333333333337" x2="-144.0" y2="-473.33333333333337" stroke="#fff" fill="none" stroke-width="10.0" stroke-linecap="round"/><line x1="-144.0" y1="-473.33333333333337" x2="-144.0" y2="-503.33333333333337" stroke="#000" fill="none" stroke-width="10.0" stroke-linecap="round"/><line x1="0.0" y1="0.0" x2="0.0" y2="0.0" stroke="none" fill="none" stroke-width="10.0" stroke-linecap="round"/><line x1="-144.0" y1="-503.33333333333337" x2="-144.0" y2="-513.3333333333334" stroke="#fff" fill="none" stroke-width="10.0" stroke-linecap="round"/></svg>