<?xml version="1.0" ?><!DOCTYPE svg  PUBLIC '-//W3C//DTD SVG 1.1//EN'  'http://www.w3.org/Graphics/SVG/1.1/DTD/svg11.dtd'><svg xmlns="http://www.w3.org/2000/svg" width="356.000" height="477.000" viewBox="-335.000 -453.000 356.000 477.000"><polygon points="0.0,0.0 0.0,0.0 0.0,0.0" fill="none" fill-rule="evenodd" stroke-linejoin="round"/><line x1="-314.0" y1="-3.3333333333333335" x2="-314.0" y2="-33.333333333333336" stroke="#000" fill="none" stroke-width="10.0" stroke-linecap="round"/><line x1="-314.0" y1="-33.333333333333336" x2="-314.0" y2="-43.333333333333336" stroke="#fff" fill="none" stroke-width="10.0" stroke-linecap="round"/><polyline points="-314.0,-43.333333333333336 -314.0,-53.333333333333336 -314.0,-173.33333333333334" stroke="#000" fill="none" stroke-width="10.0" stroke-linecap="round" stroke-linejoin="round"/><line x1="-314.0" y1="-173.33333333333334" x2="-314.0" y2="-203.33333333333334" stroke="#fff" fill="none" stroke-width="10.0" stroke-linecap="round"/><line x1="-314.0" y1="-203.33333333333334" x2="-314.0" y2="-213.33333333333334" stroke="#f00" fill="none" stroke-width="10.0" stroke-linecap="round"/><line x1="-314.0" y1="-213.33333333333334" x2="-314.0" y2="-243.33333333333334" stroke="#fff" fill="none" stroke-width="10.0" stroke-linecap="round"/><polyline points="-314.0,-243.33333333333334 -314.0,-373.33333333333337 -314.0,-383.33333333333337" stroke="#000" fill="none" stroke-width="10.0" stroke-linecap="round" stroke-linejoin="round"/><line x1="-314.0" y1="-383.33333333333337" x2="-314.0" y2="-393.33333333333337" stroke="#fff" fill="none" stroke-width="10.0" stroke-linecap="round"/><line x1="-314.0" y1="-393.33333333333337" x2="-314.0" y2="-423.33333333333337" stroke="#000" fill="none" stroke-width="10.0" stroke-linecap="round"/><line x1="-314.0" y1="-423.33333333333337" x2="-314.0" y2="-433.33333333333337" stroke="#fff" fill="none" stroke-width="10.0" stroke-linecap="round"/><line x1="-304.0" y1="-0.0" x2="-304.0" y2="-30.0" stroke="#000" fill="none" stroke-width="10.0" stroke-linecap="round"/><line x1="-304.0" y1="-30.0" x2="-304.0" y2="-40.0" stroke="#fff" fill="none" stroke-width="10.0" stroke-linecap="round"/><polyline points="-304.0,-40.0 -304.0,-50.0 -304.0,-170.0" stroke="#000" fill="none" stroke-width="10.0" stroke-linecap="round" stroke-linejoin="round"/><line x1="-304.0" y1="-170.0" x2="-304.0" y2="-190.0" stroke="#fff" fill="none" stroke-width="10.0" stroke-linecap="round"/><line x1="-304.0" y1="-190.0" x2="-304.0" y2="-220.0" stroke="#f00" fill="none" stroke-width="10.0" stroke-linecap="round"/><line x1="-304.0" y1="-220.0" x2="-304.0" y2="-240.0" stroke="#fff" fill="none" stroke-width="10.0" stroke-linecap="round"/><polyline points="-304.0,-240.0 -304.0,-370.0 -304.0,-380.0" stroke="#000" fill="none" stroke-width="10.0" stroke-linecap="round" stroke-linejoin="round"/><line x1="-304.0" y1="-380.0" x2="-304.0" y2="-390.0" stroke="#fff" fill="none" stroke-width="10.0" stroke-linecap="round"/><line x1="-304.0" y1="-390.0" x2="-304.0" y2="-420.0" stroke="#000" fill="none" stroke-width="10.0" stroke-linecap="round"/><line x1="-304.0" y1="-420.0" x2="-304.0" y2="-430.0" stroke="#fff" fill="none" stroke-width="10.0" stroke-linecap="round"/><line x1="-294.0" y1="3.3333333333333335" x2="-294.0" y2="-26.666666666666668" stroke="#000" fill="none" stroke-width="10.0" stroke-linecap="round"/><line x1="-294.0" y1="-26.666666666666668" x2="-294.0" y2="-36.66666666666667" stroke="#fff" fill="none" stroke-width="10.0" stroke-linecap="round"/><polyline points="-294.0,-36.66666666666667 -294.0,-46.66666666666667 -294.0,-166.66666666666669" stroke="#000" fill="none" stroke-width="10.0" stroke-linecap="round" stroke-linejoin="round"/><line x1="-294.0" y1="-166.66666666666669" x2="-294.0" y2="-176.66666666666669" stroke="#fff" fill="none" stroke-width="10.0" stroke-linecap="round"/><line x1="-294.0" y1="-176.66666666666669" x2="-294.0" y2="-226.66666666666669" stroke="#f00" fill="none" stroke-width="10.0" stroke-linecap="round"/><line x1="-294.0" y1="-226.66666666666669" x2="-294.0" y2="-236.66666666666669" stroke="#fff" fill="none" stroke-width="10.0" stroke-linecap="round"/><polyline points="-294.0,-236.66666666666669 -294.0,-366.6666666666667 -294.0,-376.6666666666667" stroke="#000" fill="none" stroke-width="10.0" stroke-linecap="round" stroke-linejoin="round"/><line x1="-294.0" y1="-376.6666666666667" x2="-294.0" y2="-386.6666666666667" stroke="#fff" fill="none" stroke-width="10.0" stroke-linecap="round"/><line x1="-294.0" y1="-386.6666666666667" x2="-294.0" y2="-416.6666666666667" stroke="#000" fill="none" stroke-width="10.0" stroke-linecap="round"/><line x1="-294.0" y1="-416.6666666666667" x2="-294.0" y2="-426.6666666666667" stroke="#fff" fill="none" stroke-width="10.0" stroke-linecap="round"/><line x1="-284.0" y1="-0.0" x2="-284.0" y2="-30.0" stroke="#000" fill="none" stroke-width="10.0" stroke-linecap="round"/><line x1="-284.0" y1="-30.0" x2="-284.0" y2="-40.0" stroke="#fff" fill="none" stroke-width="10.0" stroke-linecap="round"/><polyline points="-284.0,-40.0 -284.0,-50.0 -284.0,-170.0" stroke="#000" fill="none" stroke-width="10.0" stroke-linecap="round" stroke-linejoin="round"/><line x1="-284.0" y1="-170.0" x2="-284.0" y2="-190.0" stroke="#fff" fill="none" stroke-width="10.0" stroke-linecap="round"/><line x1="-284.0" y1="-190.0" x2="-284.0" y2="-220.0" stroke="#f00" fill="none" stroke-width="10.0" stroke-linecap="round"/><line x1="-284.0" y1="-220.0" x2="-284.0" y2="-240.0" stroke="#fff" fill="none" stroke-width="10.0" stroke-linecap="round"/><polyline points="-284.0,-240.0 -284.0,-370.0 -284.0,-380.0" stroke="#000" fill="none" stroke-width="10.0" stroke-linecap="round" stroke-linejoin="round"/><line x1="-284.0" y1="-380.0" x2="-284.0" y2="-390.0" stroke="#fff" fill="none" stroke-width="10.0" stroke-linecap="round"/><line x1="-284.0" y1="-390.0" x2="-284.0" y2="-420.0" stroke="#000" fill="none" stroke-width="10.0" stroke-linecap="round"/><line x1="-284.0" y1="-420.0" x2="-284.0" y2="-430.0" stroke="#fff" fill="none" stroke-width="10.0" stroke-linecap="round"/><line x1="-274.0" y1="-3.3333333333333335" x2="-274.0" y2="-33.333333333333336" stroke="#000" fill="none" stroke-width="10.0" stroke-linecap="round"/><line x1="-274.0" y1="-33.333333333333336" x2="-274.0" y2="-43.333333333333336" stroke="#fff" fill="none" stroke-width="10.0" stroke-linecap="round"/><polyline points="-274.0,-43.333333333333336 -274.0,-53.333333333333336 -274.0,-173.33333333333334" stroke="#000" fill="none" stroke-width="10.0" stroke-linecap="round" stroke-linejoin="round"/><line x1="-274.0" y1="-173.33333333333334" x2="-274.0" y2="-203.33333333333334" stroke="#fff" fill="none" stroke-width="10.0" stroke-linecap="round"/><line x1="-274.0" y1="-203.33333333333334" x2="-274.0" y2="-213.33333333333334" stroke="#f00" fill="none" stroke-width="10.0" stroke-linecap="round"/><line x1="-274.0" y1="-213.33333333333334" x2="-274.0" y2="-243.33333333333334" stroke="#fff" fill="none" stroke-width="10.0" stroke-linecap="round"/><polyline points="-274.0,-243.33333333333334 -274.0,-373.33333333333337 -274.0,-383.33333333333337" stroke="#000" fill="none" stroke-width="10.0" stroke-linecap="round" stroke-linejoin="round"/><line x1="-274.0" y1="-383.33333333333337" x2="-274.0" y2="-393.33333333333337" stroke="#fff" fill="none" stroke-width="10.0" stroke-linecap="round"/><line x1="-274.0" y1="-393.33333333333337" x2="-274.0" y2="-423.33333333333337" stroke="#000" fill="none" stroke-width="10.0" stroke-linecap="round"/><line x1="-274.0" y1="-423.33333333333337" x2="-274.0" y2="-433.33333333333337" stroke="#fff" fill="none" stroke-width="10.0" stroke-linecap="round"/><line x1="-264.0" y1="-0.0" x2="-264.0" y2="-30.0" stroke="#000" fill="none" stroke-width="10.0" stroke-linecap="round"/><line x1="-264.0" y1="-30.0" x2="-264.0" y2="-40.0" stroke="#fff" fill="none" stroke-width="10.0" stroke-linecap="round"/><polyline points="-264.0,-40.0 -264.0,-50.0 -264.0,-170.0" stroke="#000" fill="none" stroke-width="10.0" stroke-linecap="round" stroke-linejoin="round"/><line x1="-264.0" y1="-170.0" x2="-264.0" y2="-190.0" stroke="#fff" fill="none" stroke-width="10.0" stroke-linecap="round"/><line x1="-264.0" y1="-190.0" x2="-264.0" y2="-220.0" stroke="#f00" fill="none" stroke-width="10.0" stroke-linecap="round"/><line x1="-264.0" y1="-220.0" x2="-264.0" y2="-240.0" stroke="#fff" fill="none" stroke-width="10.0" stroke-linecap="round"/><polyline points="-264.0,-240.0 -264.0,-370.0 -264.0,-380.0" stroke="#000" fill="none" stroke-width="10.0" stroke-linecap="round" stroke-linejoin="round"/><line x1="-264.0" y1="-380.0" x2="-264.0" y2="-390.0" stroke="#fff" fill="none" stroke-width="10.0" stroke-linecap="round"/><line x1="-264.0" y1="-390.0" x2="-264.0" y2="-420.0" stroke="#000" fill="none" stroke-width="10.0" stroke-linecap="round"/><line x1="-264.0" y1="-420.0" x2="-264.0" y2="-430.0" stroke="#fff" fill="none" stroke-width="10.0" stroke-linecap="round"/><line x1="-254.0" y1="3.3333333333333335" x2="-254.0" y2="-26.666666666666668" stroke="#000" fill="none" stroke-width="10.0" stroke-linecap="round"/><line x1="-254.0" y1="-26.666666666666668" x2="-254.0" y2="-36.66666666666667" stroke="#fff" fill="none" stroke-width="10.0" stroke-linecap="round"/><polyline points="-254.0,-36.66666666666667 -254.0,-46.66666666666667 -254.0,-166.66666666666669" stroke="#000" fill="none" stroke-width="10.0" stroke-linecap="round" stroke-linejoin="round"/><line x1="-254.0" y1="-166.66666666666669" x2="-254.0" y2="-176.66666666666669" stroke="#fff" fill="none" stroke-width="10.0" stroke-linecap="round"/><line x1="-254.0" y1="-176.66666666666669" x2="-254.0" y2="-226.66666666666669" stroke="#f00" fill="none" stroke-width="10.0" stroke-linecap="round"/><line x1="-254.0" y1="-226.66666666666669" x2="-254.0" y2="-236.66666666666669" stroke="#fff" fill="none" stroke-width="10.0" stroke-linecap="round"/><polyline points="-254.0,-236.66666666666669 -254.0,-366.6666666666667 -254.0,-376.6666666666667" stroke="#000" fill="none" stroke-width="10.0" stroke-linecap="round" stroke-linejoin="round"/><line x1="-254.0" y1="-376.6666666666667" x2="-254.0" y2="-386.6666666666667" stroke="#fff" fill="none" stroke-width="10.0" stroke-linecap="round"/><line x1="-254.0" y1="-386.6666666666667" x2="-254.0" y2="-416.6666666666667" stroke="#000" fill="none" stroke-width="10.0" stroke-linecap="round"/><line x1="-254.0" y1="-416.6666666666667" x2="-254.0" y2="-426.6666666666667" stroke="#fff" fill="none" stroke-width="10.0" stroke-linecap="round"/><line x1="-244.0" y1="-0.0" x2="-244.0" y2="-30.0" stroke="#000" fill="none" stroke-width="10.0" stroke-linecap="round"/><line x1="-244.0" y1="-30.0" x2="-244.0" y2="-40.0" stroke="#fff" fill="none" stroke-width="10.0" stroke-linecap="round"/><polyline points="-244.0,-40.0 -244.0,-50.0 -244.0,-170.0" stroke="#000" fill="none" stroke-width="10.0" stroke-linecap="round" stroke-linejoin="round"/><line x1="-244.0" y1="-170.0" x2="-244.0" y2="-190.0" stroke="#fff" fill="none" stroke-width="10.0" stroke-linecap="round"/><line x1="-244.0" y1="-190.0" x2="-244.0" y2="-220.0" stroke="#f00" fill="none" stroke-width="10.0" stroke-linecap="round"/><line x1="-244.0" y1="-220.0" x2="-244.0" y2="-240.0" stroke="#fff" fill="none" stroke-width="10.0" stroke-linecap="round"/><polyline points="-244.0,-240.0 -244.0,-370.0 -244.0,-380.0" stroke="#000" fill="none" stroke-width="10.0" stroke-linecap="round" stroke-linejoin="round"/><line x1="-244.0" y1="-380.0" x2="-244.0" y2="-390.0" stroke="#fff" fill="none" stroke-width="10.0" stroke-linecap="round"/><line x1="-244.0" y1="-390.0" x2="-244.0" y2="-420.0" stroke="#000" fill="none" stroke-width="10.0" stroke-linecap="round"/><line x1="-244.0" y1="-420.0" x2="-244.0" y2="-430.0" stroke="#fff" fill="none" stroke-width="10.0" stroke-linecap="round"/><line x1="-234.0" y1="-3.3333333333333335" x2="-234.0" y2="-33.333333333333336" stroke="#000" fill="none" stroke-width="10.0" stroke-linecap="round"/><line x1="-234.0" y1="-33.333333333333336" x2="-234.0" y2="-43.333333333333336" stroke="#fff" fill="none" stroke-width="10.0" stroke-linecap="round"/><polyline points="-234.0,-43.333333333333336 -234.0,-53.333333333333336 -234.0,-173.33333333333334" stroke="#000" fill="none" stroke-width="10.0" stroke-linecap="round" stroke-linejoin="round"/><line x1="-234.0" y1="-173.33333333333334" x2="-234.0" y2="-203.33333333333334" stroke="#fff" fill="none" stroke-width="10.0" stroke-linecap="round"/><line x1="-234.0" y1="-203.33333333333334" x2="-234.0" y2="-213.33333333333334" stroke="#f00" fill="none" stroke-width="10.0" stroke-linecap="round"/><line x1="-234.0" y1="-213.33333333333334" x2="-234.0" y2="-243.33333333333334" stroke="#fff" fill="none" stroke-width="10.0" stroke-linecap="round"/><polyline points="-234.0,-243.33333333333334 -234.0,-373.33333333333337 -234.0,-383.33333333333337" stroke="#000" fill="none" stroke-width="10.0" stroke-linecap="round" stroke-linejoin="round"/><line x1="-234.0" y1="-383.33333333333337" x2="-234.0" y2="-393.33333333333337" stroke="#fff" fill="none" stroke-width="10.0" stroke-linecap="round"/><line x1="-234.0" y1="-393.33333333333337" x2="-234.0" y2="-423.33333333333337" stroke="#000" fill="none" stroke-width="10.0" stroke-linecap="round"/><line x1="-234.0" y1="-423.33333333333337" x2="-234.0" y2="-433.33333333333337" stroke="#fff" fill="none" stroke-width="10.0" stroke-linecap="round"/><line x1="-224.0" y1="-3.3333333333333335" x2="-224.0" y2="-33.333333333333336" stroke="#000" fill="none" stroke-width="10.0" stroke-linecap="round"/><line x1="-224.0" y1="-33.333333333333336" x2="-224.0" y2="-43.333333333333336" stroke="#fff" fill="none" stroke-width="10.0" stroke-linecap="round"/><polyline points="-224.0,-43.333333333333336 -224.0,-53.333333333333336 -224.0,-103.33333333333334" stroke="#000" fill="none" stroke-width="10.0" stroke-linecap="round" stroke-linejoin="round"/><line x1="-224.0" y1="-103.33333333333334" x2="-224.0" y2="-193.33333333333334" stroke="#fff" fill="none" stroke-width="10.0" stroke-linecap="round"/><line x1="-224.0" y1="-193.33333333333334" x2="-224.0" y2="-223.33333333333334" stroke="#f00" fill="none" stroke-width="10.0" stroke-linecap="round"/><line x1="-224.0" y1="-223.33333333333334" x2="-224.0" y2="-313.33333333333337" stroke="#fff" fill="none" stroke-width="10.0" stroke-linecap="round"/><polyline points="-224.0,-313.33333333333337 -224.0,-373.33333333333337 -224.0,-383.33333333333337" stroke="#000" fill="none" stroke-width="10.0" stroke-linecap="round" stroke-linejoin="round"/><line x1="-224.0" y1="-383.33333333333337" x2="-224.0" y2="-393.33333333333337" stroke="#fff" fill="none" stroke-width="10.0" stroke-linecap="round"/><line x1="-224.0" y1="-393.33333333333337" x2="-224.0" y2="-423.33333333333337" stroke="#000" fill="none" stroke-width="10.0" stroke-linecap="round"/><line x1="-224.0" y1="-423.33333333333337" x2="-224.0" y2="-433.33333333333337" stroke="#fff" fill="none" stroke-width="10.0" stroke-linecap="round"/><line x1="-214.0" y1="-0.0" x2="-214.0" y2="-30.0" stroke="#000" fill="none" stroke-width="10.0" stroke-linecap="round"/><line x1="-214.0" y1="-30.0" x2="-214.0" y2="-40.0" stroke="#fff" fill="none" stroke-width="10.0" stroke-linecap="round"/><polyline points="-214.0,-40.0 -214.0,-50.0 -214.0,-100.0" stroke="#000" fill="none" stroke-width="10.0" stroke-linecap="round" stroke-linejoin="round"/><line x1="-214.0" y1="-100.0" x2="-214.0" y2="-160.0" stroke="#fff" fill="none" stroke-width="10.0" stroke-linecap="round"/><line x1="-214.0" y1="-160.0" x2="-214.0" y2="-250.0" stroke="#f00" fill="none" stroke-width="10.0" stroke-linecap="round"/><line x1="-214.0" y1="-250.0" x2="-214.0" y2="-310.0" stroke="#fff" fill="none" stroke-width="10.0" stroke-linecap="round"/><polyline points="-214.0,-310.0 -214.0,-370.0 -214.0,-380.0" stroke="#000" fill="none" stroke-width="10.0" stroke-linecap="round" stroke-linejoin="round"/><line x1="-214.0" y1="-380.0" x2="-214.0" y2="-390.0" stroke="#fff" fill="none" stroke-width="10.0" stroke-linecap="round"/><line x1="-214.0" y1="-390.0" x2="-214.0" y2="-420.0" stroke="#000" fill="none" stroke-width="10.0" stroke-linecap="round"/><line x1="-214.0" y1="-420.0" x2="-214.0" y2="-430.0" stroke="#fff" fill="none" stroke-width="10.0" stroke-linecap="round"/><line x1="-204.0" y1="3.3333333333333335" x2="-204.0" y2="-26.666666666666668" stroke="#000" fill="none" stroke-width="10.0" stroke-linecap="round"/><line x1="-204.0" y1="-26.666666666666668" x2="-204.0" y2="-36.66666666666667" stroke="#fff" fill="none" stroke-width="10.0" stroke-linecap="round"/><polyline points="-204.0,-36.66666666666667 -204.0,-46.66666666666667 -204.0,-96.66666666666667" stroke="#000" fill="none" stroke-width="10.0" stroke-linecap="round" stroke-linejoin="round"/><line x1="-204.0" y1="-96.66666666666667" x2="-204.0" y2="-126.66666666666667" stroke="#fff" fill="none" stroke-width="10.0" stroke-linecap="round"/><line x1="-204.0" y1="-126.66666666666667" x2="-204.0" y2="-276.6666666666667" stroke="#f00" fill="none" stroke-width="10.0" stroke-linecap="round"/><line x1="-204.0" y1="-276.6666666666667" x2="-204.0" y2="-306.6666666666667" stroke="#fff" fill="none" stroke-width="10.0" stroke-linecap="round"/><polyline points="-204.0,-306.6666666666667 -204.0,-366.6666666666667 -204.0,-376.6666666666667" stroke="#000" fill="none" stroke-width="10.0" stroke-linecap="round" stroke-linejoin="round"/><line x1="-204.0" y1="-376.6666666666667" x2="-204.0" y2="-386.6666666666667" stroke="#fff" fill="none" stroke-width="10.0" stroke-linecap="round"/><line x1="-204.0" y1="-386.6666666666667" x2="-204.0" y2="-416.6666666666667" stroke="#000" fill="none" stroke-width="10.0" stroke-linecap="round"/><line x1="-204.0" y1="-416.6666666666667" x2="-204.0" y2="-426.6666666666667" stroke="#fff" fill="none" stroke-width="10.0" stroke-linecap="round"/><line x1="-194.0" y1="-0.0" x2="-194.0" y2="-30.0" stroke="#000" fill="none" stroke-width="10.0" stroke-linecap="round"/><line x1="-194.0" y1="-30.0" x2="-194.0" y2="-40.0" stroke="#fff" fill="none" stroke-width="10.0" stroke-linecap="round"/><polyline points="-194.0,-40.0 -194.0,-50.0 -194.0,-100.0" stroke="#000" fill="none" stroke-width="10.0" stroke-linecap="round" stroke-linejoin="round"/><line x1="-194.0" y1="-100.0" x2="-194.0" y2="-160.0" stroke="#fff" fill="none" stroke-width="10.0" stroke-linecap="round"/><line x1="-194.0" y1="-160.0" x2="-194.0" y2="-250.0" stroke="#f00" fill="none" stroke-width="10.0" stroke-linecap="round"/><line x1="-194.0" y1="-250.0" x2="-194.0" y2="-310.0" stroke="#fff" fill="none" stroke-width="10.0" stroke-linecap="round"/><polyline points="-194.0,-310.0 -194.0,-370.0 -194.0,-380.0" stroke="#000" fill="none" stroke-width="10.0" stroke-linecap="round" stroke-linejoin="round"/><line x1="-194.0" y1="-380.0" x2="-194.0" y2="-390.0" stroke="#fff" fill="none" stroke-width="10.0" stroke-linecap="round"/><line x1="-194.0" y1="-390.0" x2="-194.0" y2="-420.0" stroke="#000" fill="none" stroke-width="10.0" stroke-linecap="round"/><line x1="-194.0" y1="-420.0" x2="-194.0" y2="-430.0" stroke="#fff" fill="none" stroke-width="10.0" stroke-linecap="round"/><line x1="-184.0" y1="-3.3333333333333335" x2="-184.0" y2="-33.333333333333336" stroke="#000" fill="none" stroke-width="10.0" stroke-linecap="round"/><line x1="-184.0" y1="-33.333333333333336" x2="-184.0" y2="-43.333333333333336" stroke="#fff" fill="none" stroke-width="10.0" stroke-linecap="round"/><polyline points="-184.0,-43.333333333333336 -184.0,-53.333333333333336 -184.0,-103.33333333333334" stroke="#000" fill="none" stroke-width="10.0" stroke-linecap="round" stroke-linejoin="round"/><line x1="-184.0" y1="-103.33333333333334" x2="-184.0" y2="-193.33333333333334" stroke="#fff" fill="none" stroke-width="10.0" stroke-linecap="round"/><line x1="-184.0" y1="-193.33333333333334" x2="-184.0" y2="-223.33333333333334" stroke="#f00" fill="none" stroke-width="10.0" stroke-linecap="round"/><line x1="-184.0" y1="-223.33333333333334" x2="-184.0" y2="-313.33333333333337" stroke="#fff" fill="none" stroke-width="10.0" stroke-linecap="round"/><polyline points="-184.0,-313.33333333333337 -184.0,-373.33333333333337 -184.0,-383.33333333333337" stroke="#000" fill="none" stroke-width="10.0" stroke-linecap="round" stroke-linejoin="round"/><line x1="-184.0" y1="-383.33333333333337" x2="-184.0" y2="-393.33333333333337" stroke="#fff" fill="none" stroke-width="10.0" stroke-linecap="round"/><line x1="-184.0" y1="-393.33333333333337" x2="-184.0" y2="-423.33333333333337" stroke="#000" fill="none" stroke-width="10.0" stroke-linecap="round"/><line x1="-184.0" y1="-423.33333333333337" x2="-184.0" y2="-433.33333333333337" stroke="#fff" fill="none" stroke-width="10.0" stroke-linecap="round"/><line x1="-174.0" y1="-0.0" x2="-174.0" y2="-30.0" stroke="#000" fill="none" stroke-width="10.0" stroke-linecap="round"/><line x1="-174.0" y1="-30.0" x2="-174.0" y2="-40.0" stroke="#fff" fill="none" stroke-width="10.0" stroke-linecap="round"/><polyline points="-174.0,-40.0 -174.0,-50.0 -174.0,-100.0" stroke="#000" fill="none" stroke-width="10.0" stroke-linecap="round" stroke-linejoin="round"/><line x1="-174.0" y1="-100.0" x2="-174.0" y2="-160.0" stroke="#fff" fill="none" stroke-width="10.0" stroke-linecap="round"/><line x1="-174.0" y1="-160.0" x2="-174.0" y2="-250.0" stroke="#f00" fill="none" stroke-width="10.0" stroke-linecap="round"/><line x1="-174.0" y1="-250.0" x2="-174.0" y2="-310.0" stroke="#fff" fill="none" stroke-width="10.0" stroke-linecap="round"/><polyline points="-174.0,-310.0 -174.0,-370.0 -174.0,-380.0" stroke="#000" fill="none" stroke-width="10.0" stroke-linecap="round" stroke-linejoin="round"/><line x1="-174.0" y1="-380.0" x2="-174.0" y2="-390.0" stroke="#fff" fill="none" stroke-width="10.0" stroke-linecap="round"/><line x1="-174.0" y1="-390.0" x2="-174.0" y2="-420.0" stroke="#000" fill="none" stroke-width="10.0" stroke-linecap="round"/><line x1="-174.0" y1="-420.0" x2="-174.0" y2="-430.0" stroke="#fff" fill="none" stroke-width="10.0" stroke-linecap="round"/><line x1="-164.0" y1="3.3333333333333335" x2="-164.0" y2="-26.666666666666668" stroke="#000" fill="none" stroke-width="10.0" stroke-linecap="round"/><line x1="-164.0" y1="-26.666666666666668" x2="-164.0" y2="-36.66666666666667" stroke="#fff" fill="none" stroke-width="10.0" stroke-linecap="round"/><polyline points="-164.0,-36.66666666666667 -164.0,-46.66666666666667 -164.0,-96.66666666666667" stroke="#000" fill="none" stroke-width="10.0" stroke-linecap="round" stroke-linejoin="round"/><line x1="-164.0" y1="-96.66666666666667" x2="-164.0" y2="-126.66666666666667" stroke="#fff" fill="none" stroke-width="10.0" stroke-linecap="round"/><line x1="-164.0" y1="-126.66666666666667" x2="-164.0" y2="-276.6666666666667" stroke="#f00" fill="none" stroke-width="10.0" stroke-linecap="round"/><line x1="-164.0" y1="-276.6666666666667" x2="-164.0" y2="-306.6666666666667" stroke="#fff" fill="none" stroke-width="10.0" stroke-linecap="round"/><polyline points="-164.0,-306.6666666666667 -164.0,-366.6666666666667 -164.0,-376.6666666666667" stroke="#000" fill="none" stroke-width="10.0" stroke-linecap="round" stroke-linejoin="round"/><line x1="-164.0" y1="-376.6666666666667" x2="-164.0" y2="-386.6666666666667" stroke="#fff" fill="none" stroke-width="10.0" stroke-linecap="round"/><line x1="-164.0" y1="-386.6666666666667" x2="-164.0" y2="-416.6666666666667" stroke="#000" fill="none" stroke-width="10.0" stroke-linecap="round"/><line x1="-164.0" y1="-416.6666666666667" x2="-164.0" y2="-426.6666666666667" stroke="#fff" fill="none" stroke-width="10.0" stroke-linecap="round"/><line x1="-154.0" y1="-0.0" x2="-154.0" y2="-30.0" stroke="#000" fill="none" stroke-width="10.0" stroke-linecap="round"/><line x1="-154.0" y1="-30.0" x2="-154.0" y2="-40.0" stroke="#fff" fill="none" stroke-width="10.0" stroke-linecap="round"/><polyline points="-154.0,-40.0 -154.0,-50.0 -154.0,-100.0" stroke="#000" fill="none" stroke-width="10.0" stroke-linecap="round" stroke-linejoin="round"/><line x1="-154.0" y1="-100.0" x2="-154.0" y2="-160.0" stroke="#fff" fill="none" stroke-width="10.0" stroke-linecap="round"/><line x1="-154.0" y1="-160.0" x2="-154.0" y2="-250.0" stroke="#f00" fill="none" stroke-width="10.0" stroke-linecap="round"/><line x1="-154.0" y1="-250.0" x2="-154.0" y2="-310.0" stroke="#fff" fill="none" stroke-width="10.0" stroke-linecap="round"/><polyline points="-154.0,-310.0 -154.0,-370.0 -154.0,-380.0" stroke="#000" fill="none" stroke-width="10.0" stroke-linecap="round" stroke-linejoin="round"/><line x1="-154.0" y1="-380.0" x2="-154.0" y2="-390.0" stroke="#fff" fill="none" stroke-width="10.0" stroke-linecap="round"/><line x1="-154.0" y1="-390.0" x2="-154.0" y2="-420.0" stroke="#000" fill="none" stroke-width="10.0" stroke-linecap="round"/><line x1="-154.0" y1="-420.0" x2="-154.0" y2="-430.0" stroke="#fff" fill="none" stroke-width="10.0" stroke-linecap="round"/><line x1="-144.0" y1="-3.3333333333333335" x2="-144.0" y2="-33.333333333333336" stroke="#000" fill="none" stroke-width="10.0" stroke-linecap="round"/><line x1="-144.0" y1="-33.333333333333336" x2="-144.0" y2="-43.333333333333336" stroke="#fff" fill="none" stroke-width="10.0" stroke-linecap="round"/><polyline points="-144.0,-43.333333333333336 -144.0,-53.333333333333336 -144.0,-103.33333333333334" stroke="#000" fill="none" stroke-width="10.0" stroke-linecap="round" stroke-linejoin="round"/><line x1="-144.0" y1="-103.33333333333334" x2="-144.0" y2="-193.33333333333334" stroke="#fff" fill="none" stroke-width="10.0" stroke-linecap="round"/><line x1="-144.0" y1="-193.33333333333334" x2="-144.0" y2="-223.33333333333334" stroke="#f00" fill="none" stroke-width="10.0" stroke-linecap="round"/><line x1="-144.0" y1="-223.33333333333334" x2="-144.0" y2="-313.33333333333337" stroke="#fff" fill="none" stroke-width="10.0" stroke-linecap="round"/><polyline points="-144.0,-313.33333333333337 -144.0,-373.33333333333337 -144.0,-383.33333333333337" stroke="#000" fill="none" stroke-width="10.0" stroke-linecap="round" stroke-linejoin="round"/><line x1="-144.0" y1="-383.33333333333337" x2="-144.0" y2="-393.33333333333337" stroke="#fff" fill="none" stroke-width="10.0" stroke-linecap="round"/><line x1="-144.0" y1="-393.33333333333337" x2="-144.0" y2="-423.33333333333337" stroke="#000" fill="none" stroke-width="10.0" stroke-linecap="round"/><line x1="0.0" y1="0.0" x2="0.0" y2="0.0" stroke="none" fill="none" stroke-width="10.0" stroke-linecap="round"/><line x1="-144.0" y1="-423.33333333333337" x2="-144.0" y2="-433.33333333333337" stroke="#fff" fill="none" stroke-width="10.0" stroke-linecap="round"/></svg>