<?xml version="1.0" ?><!DOCTYPE svg  PUBLIC '-//W3C//DTD SVG 1.1//EN'  'http://www.w3.org/Graphics/SVG/1.1/DTD/svg11.dtd'><svg xmlns="http://www.w3.org/2000/svg" width="356.000" height="367.000" viewBox="-335.000 -343.000 356.000 367.000"><polygon points="0.0,0.0 0.0,0.0 0.0,0.0" fill="none" fill-rule="evenodd" stroke-linejoin="round"/><line x1="-314.0" y1="-3.3333333333333335" x2="-314.0" y2="-33.333333333333336" stroke="#000" fill="none" stroke-width="10.0" stroke-linecap="round"/><line x1="-314.0" y1="-33.333333333333336" x2="-314.0" y2="-43.333333333333336" stroke="#fff" fill="none" stroke-width="10.0" stroke-linecap="round"/><line x1="-314.0" y1="-43.333333333333336" x2="-314.0" y2="-53.333333333333336" stroke="#000" fill="none" stroke-width="10.0" stroke-linecap="round"/><line x1="-314.0" y1="-53.333333333333336" x2="-314.0" y2="-203.33333333333334" stroke="#008000" fill="none" stroke-width="10.0" stroke-linecap="round"/><line x1="-314.0" y1="-203.33333333333334" x2="-314.0" y2="-223.33333333333334" stroke="#006400" fill="none" stroke-width="10.0" stroke-linecap="round"/><line x1="-314.0" y1="-223.33333333333334" x2="-314.0" y2="-263.33333333333337" stroke="#008080" fill="none" stroke-width="10.0" stroke-linecap="round"/><line x1="-314.0" y1="-263.33333333333337" x2="-314.0" y2="-273.33333333333337" stroke="#000" fill="none" stroke-width="10.0" stroke-linecap="round"/><line x1="-314.0" y1="-273.33333333333337" x2="-314.0" y2="-283.33333333333337" stroke="#fff" fill="none" stroke-width="10.0" stroke-linecap="round"/><line x1="-314.0" y1="-283.33333333333337" x2="-314.0" y2="-313.33333333333337" stroke="#000" fill="none" stroke-width="10.0" stroke-linecap="round"/><line x1="-314.0" y1="-313.33333333333337" x2="-314.0" y2="-323.33333333333337" stroke="#fff" fill="none" stroke-width="10.0" stroke-linecap="round"/><line x1="-304.0" y1="-0.0" x2="-304.0" y2="-30.0" stroke="#000" fill="none" stroke-width="10.0" stroke-linecap="round"/><line x1="-304.0" y1="-30.0" x2="-304.0" y2="-40.0" stroke="#fff" fill="none" stroke-width="10.0" stroke-linecap="round"/><line x1="-304.0" y1="-40.0" x2="-304.0" y2="-50.0" stroke="#000" fill="none" stroke-width="10.0" stroke-linecap="round"/><line x1="-304.0" y1="-50.0" x2="-304.0" y2="-70.0" stroke="#008000" fill="none" stroke-width="10.0" stroke-linecap="round"/><line x1="-304.0" y1="-70.0" x2="-304.0" y2="-110.0" stroke="#000" fill="none" stroke-width="10.0" stroke-linecap="round"/><line x1="-304.0" y1="-110.0" x2="-304.0" y2="-170.0" stroke="#fff" fill="none" stroke-width="10.0" stroke-linecap="round"/><line x1="-304.0" y1="-170.0" x2="-304.0" y2="-180.0" stroke="#000" fill="none" stroke-width="10.0" stroke-linecap="round"/><line x1="-304.0" y1="-180.0" x2="-304.0" y2="-210.0" stroke="#008000" fill="none" stroke-width="10.0" stroke-linecap="round"/><line x1="-304.0" y1="-210.0" x2="-304.0" y2="-230.0" stroke="#006400" fill="none" stroke-width="10.0" stroke-linecap="round"/><line x1="-304.0" y1="-230.0" x2="-304.0" y2="-260.0" stroke="#008080" fill="none" stroke-width="10.0" stroke-linecap="round"/><line x1="-304.0" y1="-260.0" x2="-304.0" y2="-270.0" stroke="#000" fill="none" stroke-width="10.0" stroke-linecap="round"/><line x1="-304.0" y1="-270.0" x2="-304.0" y2="-280.0" stroke="#fff" fill="none" stroke-width="10.0" stroke-linecap="round"/><line x1="-304.0" y1="-280.0" x2="-304.0" y2="-310.0" stroke="#000" fill="none" stroke-width="10.0" stroke-linecap="round"/><line x1="-304.0" y1="-310.0" x2="-304.0" y2="-320.0" stroke="#fff" fill="none" stroke-width="10.0" stroke-linecap="round"/><line x1="-294.0" y1="3.3333333333333335" x2="-294.0" y2="-26.666666666666668" stroke="#000" fill="none" stroke-width="10.0" stroke-linecap="round"/><line x1="-294.0" y1="-26.666666666666668" x2="-294.0" y2="-36.66666666666667" stroke="#fff" fill="none" stroke-width="10.0" stroke-linecap="round"/><line x1="-294.0" y1="-36.66666666666667" x2="-294.0" y2="-46.66666666666667" stroke="#000" fill="none" stroke-width="10.0" stroke-linecap="round"/><line x1="-294.0" y1="-46.66666666666667" x2="-294.0" y2="-106.66666666666667" stroke="#008000" fill="none" stroke-width="10.0" stroke-linecap="round"/><line x1="-294.0" y1="-106.66666666666667" x2="-294.0" y2="-146.66666666666669" stroke="#fff" fill="none" stroke-width="10.0" stroke-linecap="round"/><line x1="-294.0" y1="-146.66666666666669" x2="-294.0" y2="-176.66666666666669" stroke="#000" fill="none" stroke-width="10.0" stroke-linecap="round"/><line x1="-294.0" y1="-176.66666666666669" x2="-294.0" y2="-186.66666666666669" stroke="#fff" fill="none" stroke-width="10.0" stroke-linecap="round"/><line x1="-294.0" y1="-186.66666666666669" x2="-294.0" y2="-216.66666666666669" stroke="#008000" fill="none" stroke-width="10.0" stroke-linecap="round"/><line x1="-294.0" y1="-216.66666666666669" x2="-294.0" y2="-236.66666666666669" stroke="#006400" fill="none" stroke-width="10.0" stroke-linecap="round"/><line x1="-294.0" y1="-236.66666666666669" x2="-294.0" y2="-256.6666666666667" stroke="#008080" fill="none" stroke-width="10.0" stroke-linecap="round"/><line x1="-294.0" y1="-256.6666666666667" x2="-294.0" y2="-266.6666666666667" stroke="#000" fill="none" stroke-width="10.0" stroke-linecap="round"/><line x1="-294.0" y1="-266.6666666666667" x2="-294.0" y2="-276.6666666666667" stroke="#fff" fill="none" stroke-width="10.0" stroke-linecap="round"/><line x1="-294.0" y1="-276.6666666666667" x2="-294.0" y2="-306.6666666666667" stroke="#000" fill="none" stroke-width="10.0" stroke-linecap="round"/><line x1="-294.0" y1="-306.6666666666667" x2="-294.0" y2="-316.6666666666667" stroke="#fff" fill="none" stroke-width="10.0" stroke-linecap="round"/><line x1="-284.0" y1="-0.0" x2="-284.0" y2="-30.0" stroke="#000" fill="none" stroke-width="10.0" stroke-linecap="round"/><line x1="-284.0" y1="-30.0" x2="-284.0" y2="-40.0" stroke="#fff" fill="none" stroke-width="10.0" stroke-linecap="round"/><line x1="-284.0" y1="-40.0" x2="-284.0" y2="-50.0" stroke="#000" fill="none" stroke-width="10.0" stroke-linecap="round"/><line x1="-284.0" y1="-50.0" x2="-284.0" y2="-70.0" stroke="#008000" fill="none" stroke-width="10.0" stroke-linecap="round"/><line x1="-284.0" y1="-70.0" x2="-284.0" y2="-110.0" stroke="#000" fill="none" stroke-width="10.0" stroke-linecap="round"/><line x1="-284.0" y1="-110.0" x2="-284.0" y2="-170.0" stroke="#fff" fill="none" stroke-width="10.0" stroke-linecap="round"/><line x1="-284.0" y1="-170.0" x2="-284.0" y2="-180.0" stroke="#000" fill="none" stroke-width="10.0" stroke-linecap="round"/><line x1="-284.0" y1="-180.0" x2="-284.0" y2="-210.0" stroke="#008000" fill="none" stroke-width="10.0" stroke-linecap="round"/><line x1="-284.0" y1="-210.0" x2="-284.0" y2="-230.0" stroke="#006400" fill="none" stroke-width="10.0" stroke-linecap="round"/><line x1="-284.0" y1="-230.0" x2="-284.0" y2="-260.0" stroke="#008080" fill="none" stroke-width="10.0" stroke-linecap="round"/><line x1="-284.0" y1="-260.0" x2="-284.0" y2="-270.0" stroke="#000" fill="none" stroke-width="10.0" stroke-linecap="round"/><line x1="-284.0" y1="-270.0" x2="-284.0" y2="-280.0" stroke="#fff" fill="none" stroke-width="10.0" stroke-linecap="round"/><line x1="-284.0" y1="-280.0" x2="-284.0" y2="-310.0" stroke="#000" fill="none" stroke-width="10.0" stroke-linecap="round"/><line x1="-284.0" y1="-310.0" x2="-284.0" y2="-320.0" stroke="#fff" fill="none" stroke-width="10.0" stroke-linecap="round"/><line x1="-274.0" y1="-3.3333333333333335" x2="-274.0" y2="-33.333333333333336" stroke="#000" fill="none" stroke-width="10.0" stroke-linecap="round"/><line x1="-274.0" y1="-33.333333333333336" x2="-274.0" y2="-43.333333333333336" stroke="#fff" fill="none" stroke-width="10.0" stroke-linecap="round"/><line x1="-274.0" y1="-43.333333333333336" x2="-274.0" y2="-53.333333333333336" stroke="#000" fill="none" stroke-width="10.0" stroke-linecap="round"/><line x1="-274.0" y1="-53.333333333333336" x2="-274.0" y2="-203.33333333333334" stroke="#008000" fill="none" stroke-width="10.0" stroke-linecap="round"/><line x1="-274.0" y1="-203.33333333333334" x2="-274.0" y2="-223.33333333333334" stroke="#006400" fill="none" stroke-width="10.0" stroke-linecap="round"/><line x1="-274.0" y1="-223.33333333333334" x2="-274.0" y2="-263.33333333333337" stroke="#008080" fill="none" stroke-width="10.0" stroke-linecap="round"/><line x1="-274.0" y1="-263.33333333333337" x2="-274.0" y2="-273.33333333333337" stroke="#000" fill="none" stroke-width="10.0" stroke-linecap="round"/><line x1="-274.0" y1="-273.33333333333337" x2="-274.0" y2="-283.33333333333337" stroke="#fff" fill="none" stroke-width="10.0" stroke-linecap="round"/><line x1="-274.0" y1="-283.33333333333337" x2="-274.0" y2="-313.33333333333337" stroke="#000" fill="none" stroke-width="10.0" stroke-linecap="round"/><line x1="-274.0" y1="-313.33333333333337" x2="-274.0" y2="-323.33333333333337" stroke="#fff" fill="none" stroke-width="10.0" stroke-linecap="round"/><line x1="-264.0" y1="-0.0" x2="-264.0" y2="-30.0" stroke="#000" fill="none" stroke-width="10.0" stroke-linecap="round"/><line x1="-264.0" y1="-30.0" x2="-264.0" y2="-40.0" stroke="#fff" fill="none" stroke-width="10.0" stroke-linecap="round"/><line x1="-264.0" y1="-40.0" x2="-264.0" y2="-50.0" stroke="#000" fill="none" stroke-width="10.0" stroke-linecap="round"/><line x1="-264.0" y1="-50.0" x2="-264.0" y2="-70.0" stroke="#008000" fill="none" stroke-width="10.0" stroke-linecap="round"/><line x1="-264.0" y1="-70.0" x2="-264.0" y2="-110.0" stroke="#000" fill="none" stroke-width="10.0" stroke-linecap="round"/><line x1="-264.0" y1="-110.0" x2="-264.0" y2="-170.0" stroke="#fff" fill="none" stroke-width="10.0" stroke-linecap="round"/><line x1="-264.0" y1="-170.0" x2="-264.0" y2="-180.0" stroke="#000" fill="none" stroke-width="10.0" stroke-linecap="round"/><line x1="-264.0" y1="-180.0" x2="-264.0" y2="-210.0" stroke="#008000" fill="none" stroke-width="10.0" stroke-linecap="round"/><line x1="-264.0" y1="-210.0" x2="-264.0" y2="-230.0" stroke="#006400" fill="none" stroke-width="10.0" stroke-linecap="round"/><line x1="-264.0" y1="-230.0" x2="-264.0" y2="-260.0" stroke="#008080" fill="none" stroke-width="10.0" stroke-linecap="round"/><line x1="-264.0" y1="-260.0" x2="-264.0" y2="-270.0" stroke="#000" fill="none" stroke-width="10.0" stroke-linecap="round"/><line x1="-264.0" y1="-270.0" x2="-264.0" y2="-280.0" stroke="#fff" fill="none" stroke-width="10.0" stroke-linecap="round"/><line x1="-264.0" y1="-280.0" x2="-264.0" y2="-310.0" stroke="#000" fill="none" stroke-width="10.0" stroke-linecap="round"/><line x1="-264.0" y1="-310.0" x2="-264.0" y2="-320.0" stroke="#fff" fill="none" stroke-width="10.0" stroke-linecap="round"/><line x1="-254.0" y1="3.3333333333333335" x2="-254.0" y2="-26.666666666666668" stroke="#000" fill="none" stroke-width="10.0" stroke-linecap="round"/><line x1="-254.0" y1="-26.666666666666668" x2="-254.0" y2="-36.66666666666667" stroke="#fff" fill="none" stroke-width="10.0" stroke-linecap="round"/><line x1="-254.0" y1="-36.66666666666667" x2="-254.0" y2="-46.66666666666667" stroke="#000" fill="none" stroke-width="10.0" stroke-linecap="round"/><line x1="-254.0" y1="-46.66666666666667" x2="-254.0" y2="-106.66666666666667" stroke="#008000" fill="none" stroke-width="10.0" stroke-linecap="round"/><line x1="-254.0" y1="-106.66666666666667" x2="-254.0" y2="-146.66666666666669" stroke="#fff" fill="none" stroke-width="10.0" stroke-linecap="round"/><line x1="-254.0" y1="-146.66666666666669" x2="-254.0" y2="-176.66666666666669" stroke="#000" fill="none" stroke-width="10.0" stroke-linecap="round"/><line x1="-254.0" y1="-176.66666666666669" x2="-254.0" y2="-186.66666666666669" stroke="#fff" fill="none" stroke-width="10.0" stroke-linecap="round"/><line x1="-254.0" y1="-186.66666666666669" x2="-254.0" y2="-216.66666666666669" stroke="#008000" fill="none" stroke-width="10.0" stroke-linecap="round"/><line x1="-254.0" y1="-216.66666666666669" x2="-254.0" y2="-236.66666666666669" stroke="#006400" fill="none" stroke-width="10.0" stroke-linecap="round"/><line x1="-254.0" y1="-236.66666666666669" x2="-254.0" y2="-256.6666666666667" stroke="#008080" fill="none" stroke-width="10.0" stroke-linecap="round"/><line x1="-254.0" y1="-256.6666666666667" x2="-254.0" y2="-266.6666666666667" stroke="#000" fill="none" stroke-width="10.0" stroke-linecap="round"/><line x1="-254.0" y1="-266.6666666666667" x2="-254.0" y2="-276.6666666666667" stroke="#fff" fill="none" stroke-width="10.0" stroke-linecap="round"/><line x1="-254.0" y1="-276.6666666666667" x2="-254.0" y2="-306.6666666666667" stroke="#000" fill="none" stroke-width="10.0" stroke-linecap="round"/><line x1="-254.0" y1="-306.6666666666667" x2="-254.0" y2="-316.6666666666667" stroke="#fff" fill="none" stroke-width="10.0" stroke-linecap="round"/><line x1="-244.0" y1="-0.0" x2="-244.0" y2="-30.0" stroke="#000" fill="none" stroke-width="10.0" stroke-linecap="round"/><line x1="-244.0" y1="-30.0" x2="-244.0" y2="-40.0" stroke="#fff" fill="none" stroke-width="10.0" stroke-linecap="round"/><line x1="-244.0" y1="-40.0" x2="-244.0" y2="-50.0" stroke="#000" fill="none" stroke-width="10.0" stroke-linecap="round"/><line x1="-244.0" y1="-50.0" x2="-244.0" y2="-70.0" stroke="#008000" fill="none" stroke-width="10.0" stroke-linecap="round"/><line x1="-244.0" y1="-70.0" x2="-244.0" y2="-110.0" stroke="#000" fill="none" stroke-width="10.0" stroke-linecap="round"/><line x1="-244.0" y1="-110.0" x2="-244.0" y2="-170.0" stroke="#fff" fill="none" stroke-width="10.0" stroke-linecap="round"/><line x1="-244.0" y1="-170.0" x2="-244.0" y2="-180.0" stroke="#000" fill="none" stroke-width="10.0" stroke-linecap="round"/><line x1="-244.0" y1="-180.0" x2="-244.0" y2="-210.0" stroke="#008000" fill="none" stroke-width="10.0" stroke-linecap="round"/><line x1="-244.0" y1="-210.0" x2="-244.0" y2="-230.0" stroke="#006400" fill="none" stroke-width="10.0" stroke-linecap="round"/><line x1="-244.0" y1="-230.0" x2="-244.0" y2="-260.0" stroke="#008080" fill="none" stroke-width="10.0" stroke-linecap="round"/><line x1="-244.0" y1="-260.0" x2="-244.0" y2="-270.0" stroke="#000" fill="none" stroke-width="10.0" stroke-linecap="round"/><line x1="-244.0" y1="-270.0" x2="-244.0" y2="-280.0" stroke="#fff" fill="none" stroke-width="10.0" stroke-linecap="round"/><line x1="-244.0" y1="-280.0" x2="-244.0" y2="-310.0" stroke="#000" fill="none" stroke-width="10.0" stroke-linecap="round"/><line x1="-244.0" y1="-310.0" x2="-244.0" y2="-320.0" stroke="#fff" fill="none" stroke-width="10.0" stroke-linecap="round"/><line x1="-234.0" y1="-3.3333333333333335" x2="-234.0" y2="-33.333333333333336" stroke="#000" fill="none" stroke-width="10.0" stroke-linecap="round"/><line x1="-234.0" y1="-33.333333333333336" x2="-234.0" y2="-43.333333333333336" stroke="#fff" fill="none" stroke-width="10.0" stroke-linecap="round"/><line x1="-234.0" y1="-43.333333333333336" x2="-234.0" y2="-53.333333333333336" stroke="#000" fill="none" stroke-width="10.0" stroke-linecap="round"/><line x1="-234.0" y1="-53.333333333333336" x2="-234.0" y2="-203.33333333333334" stroke="#008000" fill="none" stroke-width="10.0" stroke-linecap="round"/><line x1="-234.0" y1="-203.33333333333334" x2="-234.0" y2="-223.33333333333334" stroke="#006400" fill="none" stroke-width="10.0" stroke-linecap="round"/><line x1="-234.0" y1="-223.33333333333334" x2="-234.0" y2="-263.33333333333337" stroke="#008080" fill="none" stroke-width="10.0" stroke-linecap="round"/><line x1="-234.0" y1="-263.33333333333337" x2="-234.0" y2="-273.33333333333337" stroke="#000" fill="none" stroke-width="10.0" stroke-linecap="round"/><line x1="-234.0" y1="-273.33333333333337" x2="-234.0" y2="-283.33333333333337" stroke="#fff" fill="none" stroke-width="10.0" stroke-linecap="round"/><line x1="-234.0" y1="-283.33333333333337" x2="-234.0" y2="-313.33333333333337" stroke="#000" fill="none" stroke-width="10.0" stroke-linecap="round"/><line x1="-234.0" y1="-313.33333333333337" x2="-234.0" y2="-323.33333333333337" stroke="#fff" fill="none" stroke-width="10.0" stroke-linecap="round"/><line x1="-224.0" y1="-0.0" x2="-224.0" y2="-30.0" stroke="#000" fill="none" stroke-width="10.0" stroke-linecap="round"/><line x1="-224.0" y1="-30.0" x2="-224.0" y2="-40.0" stroke="#fff" fill="none" stroke-width="10.0" stroke-linecap="round"/><line x1="-224.0" y1="-40.0" x2="-224.0" y2="-50.0" stroke="#000" fill="none" stroke-width="10.0" stroke-linecap="round"/><line x1="-224.0" y1="-50.0" x2="-224.0" y2="-70.0" stroke="#008000" fill="none" stroke-width="10.0" stroke-linecap="round"/><line x1="-224.0" y1="-70.0" x2="-224.0" y2="-110.0" stroke="#000" fill="none" stroke-width="10.0" stroke-linecap="round"/><line x1="-224.0" y1="-110.0" x2="-224.0" y2="-170.0" stroke="#fff" fill="none" stroke-width="10.0" stroke-linecap="round"/><line x1="-224.0" y1="-170.0" x2="-224.0" y2="-180.0" stroke="#000" fill="none" stroke-width="10.0" stroke-linecap="round"/><line x1="-224.0" y1="-180.0" x2="-224.0" y2="-210.0" stroke="#008000" fill="none" stroke-width="10.0" stroke-linecap="round"/><line x1="-224.0" y1="-210.0" x2="-224.0" y2="-230.0" stroke="#006400" fill="none" stroke-width="10.0" stroke-linecap="round"/><line x1="-224.0" y1="-230.0" x2="-224.0" y2="-260.0" stroke="#008080" fill="none" stroke-width="10.0" stroke-linecap="round"/><line x1="-224.0" y1="-260.0" x2="-224.0" y2="-270.0" stroke="#000" fill="none" stroke-width="10.0" stroke-linecap="round"/><line x1="-224.0" y1="-270.0" x2="-224.0" y2="-280.0" stroke="#fff" fill="none" stroke-width="10.0" stroke-linecap="round"/><line x1="-224.0" y1="-280.0" x2="-224.0" y2="-310.0" stroke="#000" fill="none" stroke-width="10.0" stroke-linecap="round"/><line x1="-224.0" y1="-310.0" x2="-224.0" y2="-320.0" stroke="#fff" fill="none" stroke-width="10.0" stroke-linecap="round"/><line x1="-214.0" y1="3.3333333333333335" x2="-214.0" y2="-26.666666666666668" stroke="#000" fill="none" stroke-width="10.0" stroke-linecap="round"/><line x1="-214.0" y1="-26.666666666666668" x2="-214.0" y2="-36.66666666666667" stroke="#fff" fill="none" stroke-width="10.0" stroke-linecap="round"/><line x1="-214.0" y1="-36.66666666666667" x2="-214.0" y2="-46.66666666666667" stroke="#000" fill="none" stroke-width="10.0" stroke-linecap="round"/><line x1="-214.0" y1="-46.66666666666667" x2="-214.0" y2="-106.66666666666667" stroke="#008000" fill="none" stroke-width="10.0" stroke-linecap="round"/><line x1="-214.0" y1="-106.66666666666667" x2="-214.0" y2="-146.66666666666669" stroke="#fff" fill="none" stroke-width="10.0" stroke-linecap="round"/><line x1="-214.0" y1="-146.66666666666669" x2="-214.0" y2="-176.66666666666669" stroke="#000" fill="none" stroke-width="10.0" stroke-linecap="round"/><line x1="-214.0" y1="-176.66666666666669" x2="-214.0" y2="-186.66666666666669" stroke="#fff" fill="none" stroke-width="10.0" stroke-linecap="round"/><line x1="-214.0" y1="-186.66666666666669" x2="-214.0" y2="-216.66666666666669" stroke="#008000" fill="none" stroke-width="10.0" stroke-linecap="round"/><line x1="-214.0" y1="-216.66666666666669" x2="-214.0" y2="-236.66666666666669" stroke="#006400" fill="none" stroke-width="10.0" stroke-linecap="round"/><line x1="-214.0" y1="-236.66666666666669" x2="-214.0" y2="-256.6666666666667" stroke="#008080" fill="none" stroke-width="10.0" stroke-linecap="round"/><line x1="-214.0" y1="-256.6666666666667" x2="-214.0" y2="-266.6666666666667" stroke="#000" fill="none" stroke-width="10.0" stroke-linecap="round"/><line x1="-214.0" y1="-266.6666666666667" x2="-214.0" y2="-276.6666666666667" stroke="#fff" fill="none" stroke-width="10.0" stroke-linecap="round"/><line x1="-214.0" y1="-276.6666666666667" x2="-214.0" y2="-306.6666666666667" stroke="#000" fill="none" stroke-width="10.0" stroke-linecap="round"/><line x1="-214.0" y1="-306.6666666666667" x2="-214.0" y2="-316.6666666666667" stroke="#fff" fill="none" stroke-width="10.0" stroke-linecap="round"/><line x1="-204.0" y1="-0.0" x2="-204.0" y2="-30.0" stroke="#000" fill="none" stroke-width="10.0" stroke-linecap="round"/><line x1="-204.0" y1="-30.0" x2="-204.0" y2="-40.0" stroke="#fff" fill="none" stroke-width="10.0" stroke-linecap="round"/><line x1="-204.0" y1="-40.0" x2="-204.0" y2="-50.0" stroke="#000" fill="none" stroke-width="10.0" stroke-linecap="round"/><line x1="-204.0" y1="-50.0" x2="-204.0" y2="-70.0" stroke="#008000" fill="none" stroke-width="10.0" stroke-linecap="round"/><line x1="-204.0" y1="-70.0" x2="-204.0" y2="-110.0" stroke="#000" fill="none" stroke-width="10.0" stroke-linecap="round"/><line x1="-204.0" y1="-110.0" x2="-204.0" y2="-170.0" stroke="#fff" fill="none" stroke-width="10.0" stroke-linecap="round"/><line x1="-204.0" y1="-170.0" x2="-204.0" y2="-180.0" stroke="#000" fill="none" stroke-width="10.0" stroke-linecap="round"/><line x1="-204.0" y1="-180.0" x2="-204.0" y2="-210.0" stroke="#008000" fill="none" stroke-width="10.0" stroke-linecap="round"/><line x1="-204.0" y1="-210.0" x2="-204.0" y2="-230.0" stroke="#006400" fill="none" stroke-width="10.0" stroke-linecap="round"/><line x1="-204.0" y1="-230.0" x2="-204.0" y2="-260.0" stroke="#008080" fill="none" stroke-width="10.0" stroke-linecap="round"/><line x1="-204.0" y1="-260.0" x2="-204.0" y2="-270.0" stroke="#000" fill="none" stroke-width="10.0" stroke-linecap="round"/><line x1="-204.0" y1="-270.0" x2="-204.0" y2="-280.0" stroke="#fff" fill="none" stroke-width="10.0" stroke-linecap="round"/><line x1="-204.0" y1="-280.0" x2="-204.0" y2="-310.0" stroke="#000" fill="none" stroke-width="10.0" stroke-linecap="round"/><line x1="-204.0" y1="-310.0" x2="-204.0" y2="-320.0" stroke="#fff" fill="none" stroke-width="10.0" stroke-linecap="round"/><line x1="-194.0" y1="-3.3333333333333335" x2="-194.0" y2="-33.333333333333336" stroke="#000" fill="none" stroke-width="10.0" stroke-linecap="round"/><line x1="-194.0" y1="-33.333333333333336" x2="-194.0" y2="-43.333333333333336" stroke="#fff" fill="none" stroke-width="10.0" stroke-linecap="round"/><line x1="-194.0" y1="-43.333333333333336" x2="-194.0" y2="-53.333333333333336" stroke="#000" fill="none" stroke-width="10.0" stroke-linecap="round"/><line x1="-194.0" y1="-53.333333333333336" x2="-194.0" y2="-203.33333333333334" stroke="#008000" fill="none" stroke-width="10.0" stroke-linecap="round"/><line x1="-194.0" y1="-203.33333333333334" x2="-194.0" y2="-223.33333333333334" stroke="#006400" fill="none" stroke-width="10.0" stroke-linecap="round"/><line x1="-194.0" y1="-223.33333333333334" x2="-194.0" y2="-263.33333333333337" stroke="#008080" fill="none" stroke-width="10.0" stroke-linecap="round"/><line x1="-194.0" y1="-263.33333333333337" x2="-194.0" y2="-273.33333333333337" stroke="#000" fill="none" stroke-width="10.0" stroke-linecap="round"/><line x1="-194.0" y1="-273.33333333333337" x2="-194.0" y2="-283.33333333333337" stroke="#fff" fill="none" stroke-width="10.0" stroke-linecap="round"/><line x1="-194.0" y1="-283.33333333333337" x2="-194.0" y2="-313.33333333333337" stroke="#000" fill="none" stroke-width="10.0" stroke-linecap="round"/><line x1="-194.0" y1="-313.33333333333337" x2="-194.0" y2="-323.33333333333337" stroke="#fff" fill="none" stroke-width="10.0" stroke-linecap="round"/><line x1="-184.0" y1="-0.0" x2="-184.0" y2="-30.0" stroke="#000" fill="none" stroke-width="10.0" stroke-linecap="round"/><line x1="-184.0" y1="-30.0" x2="-184.0" y2="-40.0" stroke="#fff" fill="none" stroke-width="10.0" stroke-linecap="round"/><line x1="-184.0" y1="-40.0" x2="-184.0" y2="-50.0" stroke="#000" fill="none" stroke-width="10.0" stroke-linecap="round"/><line x1="-184.0" y1="-50.0" x2="-184.0" y2="-70.0" stroke="#008000" fill="none" stroke-width="10.0" stroke-linecap="round"/><line x1="-184.0" y1="-70.0" x2="-184.0" y2="-110.0" stroke="#000" fill="none" stroke-width="10.0" stroke-linecap="round"/><line x1="-184.0" y1="-110.0" x2="-184.0" y2="-170.0" stroke="#fff" fill="none" stroke-width="10.0" stroke-linecap="round"/><line x1="-184.0" y1="-170.0" x2="-184.0" y2="-180.0" stroke="#000" fill="none" stroke-width="10.0" stroke-linecap="round"/><line x1="-184.0" y1="-180.0" x2="-184.0" y2="-210.0" stroke="#008000" fill="none" stroke-width="10.0" stroke-linecap="round"/><line x1="-184.0" y1="-210.0" x2="-184.0" y2="-230.0" stroke="#006400" fill="none" stroke-width="10.0" stroke-linecap="round"/><line x1="-184.0" y1="-230.0" x2="-184.0" y2="-260.0" stroke="#008080" fill="none" stroke-width="10.0" stroke-linecap="round"/><line x1="-184.0" y1="-260.0" x2="-184.0" y2="-270.0" stroke="#000" fill="none" stroke-width="10.0" stroke-linecap="round"/><line x1="-184.0" y1="-270.0" x2="-184.0" y2="-280.0" stroke="#fff" fill="none" stroke-width="10.0" stroke-linecap="round"/><line x1="-184.0" y1="-280.0" x2="-184.0" y2="-310.0" stroke="#000" fill="none" stroke-width="10.0" stroke-linecap="round"/><line x1="-184.0" y1="-310.0" x2="-184.0" y2="-320.0" stroke="#fff" fill="none" stroke-width="10.0" stroke-linecap="round"/><line x1="-174.0" y1="3.3333333333333335" x2="-174.0" y2="-26.666666666666668" stroke="#000" fill="none" stroke-width="10.0" stroke-linecap="round"/><line x1="-174.0" y1="-26.666666666666668" x2="-174.0" y2="-36.66666666666667" stroke="#fff" fill="none" stroke-width="10.0" stroke-linecap="round"/><line x1="-174.0" y1="-36.66666666666667" x2="-174.0" y2="-46.66666666666667" stroke="#000" fill="none" stroke-width="10.0" stroke-linecap="round"/><line x1="-174.0" y1="-46.66666666666667" x2="-174.0" y2="-106.66666666666667" stroke="#008000" fill="none" stroke-width="10.0" stroke-linecap="round"/><line x1="-174.0" y1="-106.66666666666667" x2="-174.0" y2="-146.66666666666669" stroke="#fff" fill="none" stroke-width="10.0" stroke-linecap="round"/><line x1="-174.0" y1="-146.66666666666669" x2="-174.0" y2="-176.66666666666669" stroke="#000" fill="none" stroke-width="10.0" stroke-linecap="round"/><line x1="-174.0" y1="-176.66666666666669" x2="-174.0" y2="-186.66666666666669" stroke="#fff" fill="none" stroke-width="10.0" stroke-linecap="round"/><line x1="-174.0" y1="-186.66666666666669" x2="-174.0" y2="-216.66666666666669" stroke="#008000" fill="none" stroke-width="10.0" stroke-linecap="round"/><line x1="-174.0" y1="-216.66666666666669" x2="-174.0" y2="-236.66666666666669" stroke="#006400" fill="none" stroke-width="10.0" stroke-linecap="round"/><line x1="-174.0" y1="-236.66666666666669" x2="-174.0" y2="-256.6666666666667" stroke="#008080" fill="none" stroke-width="10.0" stroke-linecap="round"/><line x1="-174.0" y1="-256.6666666666667" x2="-174.0" y2="-266.6666666666667" stroke="#000" fill="none" stroke-width="10.0" stroke-linecap="round"/><line x1="-174.0" y1="-266.6666666666667" x2="-174.0" y2="-276.6666666666667" stroke="#fff" fill="none" stroke-width="10.0" stroke-linecap="round"/><line x1="-174.0" y1="-276.6666666666667" x2="-174.0" y2="-306.6666666666667" stroke="#000" fill="none" stroke-width="10.0" stroke-linecap="round"/><line x1="-174.0" y1="-306.6666666666667" x2="-174.0" y2="-316.6666666666667" stroke="#fff" fill="none" stroke-width="10.0" stroke-linecap="round"/><line x1="-164.0" y1="-0.0" x2="-164.0" y2="-30.0" stroke="#000" fill="none" stroke-width="10.0" stroke-linecap="round"/><line x1="-164.0" y1="-30.0" x2="-164.0" y2="-40.0" stroke="#fff" fill="none" stroke-width="10.0" stroke-linecap="round"/><line x1="-164.0" y1="-40.0" x2="-164.0" y2="-50.0" stroke="#000" fill="none" stroke-width="10.0" stroke-linecap="round"/><line x1="-164.0" y1="-50.0" x2="-164.0" y2="-70.0" stroke="#008000" fill="none" stroke-width="10.0" stroke-linecap="round"/><line x1="-164.0" y1="-70.0" x2="-164.0" y2="-110.0" stroke="#000" fill="none" stroke-width="10.0" stroke-linecap="round"/><line x1="-164.0" y1="-110.0" x2="-164.0" y2="-170.0" stroke="#fff" fill="none" stroke-width="10.0" stroke-linecap="round"/><line x1="-164.0" y1="-170.0" x2="-164.0" y2="-180.0" stroke="#000" fill="none" stroke-width="10.0" stroke-linecap="round"/><line x1="-164.0" y1="-180.0" x2="-164.0" y2="-210.0" stroke="#008000" fill="none" stroke-width="10.0" stroke-linecap="round"/><line x1="-164.0" y1="-210.0" x2="-164.0" y2="-230.0" stroke="#006400" fill="none" stroke-width="10.0" stroke-linecap="round"/><line x1="-164.0" y1="-230.0" x2="-164.0" y2="-260.0" stroke="#008080" fill="none" stroke-width="10.0" stroke-linecap="round"/><line x1="-164.0" y1="-260.0" x2="-164.0" y2="-270.0" stroke="#000" fill="none" stroke-width="10.0" stroke-linecap="round"/><line x1="-164.0" y1="-270.0" x2="-164.0" y2="-280.0" stroke="#fff" fill="none" stroke-width="10.0" stroke-linecap="round"/><line x1="-164.0" y1="-280.0" x2="-164.0" y2="-310.0" stroke="#000" fill="none" stroke-width="10.0" stroke-linecap="round"/><line x1="-164.0" y1="-310.0" x2="-164.0" y2="-320.0" stroke="#fff" fill="none" stroke-width="10.0" stroke-linecap="round"/><line x1="-154.0" y1="-3.3333333333333335" x2="-154.0" y2="-33.333333333333336" stroke="#000" fill="none" stroke-width="10.0" stroke-linecap="round"/><line x1="-154.0" y1="-33.333333333333336" x2="-154.0" y2="-43.333333333333336" stroke="#fff" fill="none" stroke-width="10.0" stroke-linecap="round"/><line x1="-154.0" y1="-43.333333333333336" x2="-154.0" y2="-53.333333333333336" stroke="#000" fill="none" stroke-width="10.0" stroke-linecap="round"/><line x1="-154.0" y1="-53.333333333333336" x2="-154.0" y2="-203.33333333333334" stroke="#008000" fill="none" stroke-width="10.0" stroke-linecap="round"/><line x1="-154.0" y1="-203.33333333333334" x2="-154.0" y2="-223.33333333333334" stroke="#006400" fill="none" stroke-width="10.0" stroke-linecap="round"/><line x1="-154.0" y1="-223.33333333333334" x2="-154.0" y2="-263.33333333333337" stroke="#008080" fill="none" stroke-width="10.0" stroke-linecap="round"/><line x1="-154.0" y1="-263.33333333333337" x2="-154.0" y2="-273.33333333333337" stroke="#000" fill="none" stroke-width="10.0" stroke-linecap="round"/><line x1="-154.0" y1="-273.33333333333337" x2="-154.0" y2="-283.33333333333337" stroke="#fff" fill="none" stroke-width="10.0" stroke-linecap="round"/><line x1="-154.0" y1="-283.33333333333337" x2="-154.0" y2="-313.33333333333337" stroke="#000" fill="none" stroke-width="10.0" stroke-linecap="round"/><line x1="0.0" y1="0.0" x2="0.0" y2="0.0" stroke="none" fill="none" stroke-width="10.0" stroke-linecap="round"/><line x1="-154.0" y1="-313.33333333333337" x2="-154.0" y2="-323.33333333333337" stroke="#fff" fill="none" stroke-width="10.0" stroke-linecap="round"/></svg>