<?xml version="1.0" ?><!DOCTYPE svg  PUBLIC '-//W3C//DTD SVG 1.1//EN'  'http://www.w3.org/Graphics/SVG/1.1/DTD/svg11.dtd'><svg xmlns="http://www.w3.org/2000/svg" width="362.000" height="297.000" viewBox="-335.000 -273.000 362.000 297.000"><polygon points="0.0,0.0 0.0,0.0 0.0,0.0" fill="none" fill-rule="evenodd" stroke-linejoin="round"/><line x1="-314.0" y1="-3.3333333333333335" x2="-314.0" y2="-23.333333333333332" stroke="#008000" fill="none" stroke-width="10.0" stroke-linecap="round"/><line x1="-314.0" y1="-23.333333333333332" x2="-314.0" y2="-43.33333333333333" stroke="#fff" fill="none" stroke-width="10.0" stroke-linecap="round"/><line x1="-314.0" y1="-43.33333333333333" x2="-314.0" y2="-53.33333333333333" stroke="#ff8c00" fill="none" stroke-width="10.0" stroke-linecap="round"/><line x1="-314.0" y1="-53.33333333333333" x2="-314.0" y2="-73.33333333333333" stroke="#fff" fill="none" stroke-width="10.0" stroke-linecap="round"/><line x1="-314.0" y1="-73.33333333333333" x2="-314.0" y2="-93.33333333333333" stroke="#008000" fill="none" stroke-width="10.0" stroke-linecap="round"/><line x1="-314.0" y1="-93.33333333333333" x2="-314.0" y2="-123.33333333333333" stroke="#27408b" fill="none" stroke-width="10.0" stroke-linecap="round"/><line x1="-314.0" y1="-123.33333333333333" x2="-314.0" y2="-213.33333333333331" stroke="#a0522d" fill="none" stroke-width="10.0" stroke-linecap="round"/><line x1="-314.0" y1="-213.33333333333331" x2="-314.0" y2="-233.33333333333331" stroke="#8b4513" fill="none" stroke-width="10.0" stroke-linecap="round"/><line x1="-314.0" y1="-233.33333333333331" x2="-314.0" y2="-253.33333333333331" stroke="#87ceeb" fill="none" stroke-width="10.0" stroke-linecap="round"/><line x1="-304.0" y1="-0.0" x2="-304.0" y2="-20.0" stroke="#008000" fill="none" stroke-width="10.0" stroke-linecap="round"/><line x1="-304.0" y1="-20.0" x2="-304.0" y2="-30.0" stroke="#fff" fill="none" stroke-width="10.0" stroke-linecap="round"/><line x1="-304.0" y1="-30.0" x2="-304.0" y2="-60.0" stroke="#ff8c00" fill="none" stroke-width="10.0" stroke-linecap="round"/><line x1="-304.0" y1="-60.0" x2="-304.0" y2="-70.0" stroke="#fff" fill="none" stroke-width="10.0" stroke-linecap="round"/><line x1="-304.0" y1="-70.0" x2="-304.0" y2="-90.0" stroke="#008000" fill="none" stroke-width="10.0" stroke-linecap="round"/><line x1="-304.0" y1="-90.0" x2="-304.0" y2="-120.0" stroke="#27408b" fill="none" stroke-width="10.0" stroke-linecap="round"/><line x1="-304.0" y1="-120.0" x2="-304.0" y2="-180.0" stroke="#a0522d" fill="none" stroke-width="10.0" stroke-linecap="round"/><line x1="-304.0" y1="-180.0" x2="-304.0" y2="-200.0" stroke="#8b4513" fill="none" stroke-width="10.0" stroke-linecap="round"/><polyline points="-304.0,-200.0 -304.0,-230.0 -304.0,-250.0" stroke="#87ceeb" fill="none" stroke-width="10.0" stroke-linecap="round" stroke-linejoin="round"/><line x1="-294.0" y1="3.3333333333333335" x2="-294.0" y2="-16.666666666666668" stroke="#008000" fill="none" stroke-width="10.0" stroke-linecap="round"/><line x1="-294.0" y1="-16.666666666666668" x2="-294.0" y2="-66.66666666666667" stroke="#ff8c00" fill="none" stroke-width="10.0" stroke-linecap="round"/><line x1="-294.0" y1="-66.66666666666667" x2="-294.0" y2="-86.66666666666667" stroke="#008000" fill="none" stroke-width="10.0" stroke-linecap="round"/><line x1="-294.0" y1="-86.66666666666667" x2="-294.0" y2="-116.66666666666667" stroke="#27408b" fill="none" stroke-width="10.0" stroke-linecap="round"/><line x1="-294.0" y1="-116.66666666666667" x2="-294.0" y2="-146.66666666666669" stroke="#a0522d" fill="none" stroke-width="10.0" stroke-linecap="round"/><line x1="-294.0" y1="-146.66666666666669" x2="-294.0" y2="-166.66666666666669" stroke="#8b4513" fill="none" stroke-width="10.0" stroke-linecap="round"/><polyline points="-294.0,-166.66666666666669 -294.0,-226.66666666666669 -294.0,-246.66666666666669" stroke="#87ceeb" fill="none" stroke-width="10.0" stroke-linecap="round" stroke-linejoin="round"/><line x1="-284.0" y1="-0.0" x2="-284.0" y2="-20.0" stroke="#008000" fill="none" stroke-width="10.0" stroke-linecap="round"/><line x1="-284.0" y1="-20.0" x2="-284.0" y2="-30.0" stroke="#fff" fill="none" stroke-width="10.0" stroke-linecap="round"/><line x1="-284.0" y1="-30.0" x2="-284.0" y2="-60.0" stroke="#ff8c00" fill="none" stroke-width="10.0" stroke-linecap="round"/><line x1="-284.0" y1="-60.0" x2="-284.0" y2="-70.0" stroke="#fff" fill="none" stroke-width="10.0" stroke-linecap="round"/><line x1="-284.0" y1="-70.0" x2="-284.0" y2="-90.0" stroke="#008000" fill="none" stroke-width="10.0" stroke-linecap="round"/><line x1="-284.0" y1="-90.0" x2="-284.0" y2="-120.0" stroke="#27408b" fill="none" stroke-width="10.0" stroke-linecap="round"/><line x1="-284.0" y1="-120.0" x2="-284.0" y2="-180.0" stroke="#a0522d" fill="none" stroke-width="10.0" stroke-linecap="round"/><line x1="-284.0" y1="-180.0" x2="-284.0" y2="-200.0" stroke="#8b4513" fill="none" stroke-width="10.0" stroke-linecap="round"/><polyline points="-284.0,-200.0 -284.0,-230.0 -284.0,-250.0" stroke="#87ceeb" fill="none" stroke-width="10.0" stroke-linecap="round" stroke-linejoin="round"/><line x1="-274.0" y1="-3.3333333333333335" x2="-274.0" y2="-23.333333333333332" stroke="#008000" fill="none" stroke-width="10.0" stroke-linecap="round"/><line x1="-274.0" y1="-23.333333333333332" x2="-274.0" y2="-43.33333333333333" stroke="#fff" fill="none" stroke-width="10.0" stroke-linecap="round"/><line x1="-274.0" y1="-43.33333333333333" x2="-274.0" y2="-53.33333333333333" stroke="#ff8c00" fill="none" stroke-width="10.0" stroke-linecap="round"/><line x1="-274.0" y1="-53.33333333333333" x2="-274.0" y2="-73.33333333333333" stroke="#fff" fill="none" stroke-width="10.0" stroke-linecap="round"/><line x1="-274.0" y1="-73.33333333333333" x2="-274.0" y2="-93.33333333333333" stroke="#008000" fill="none" stroke-width="10.0" stroke-linecap="round"/><line x1="-274.0" y1="-93.33333333333333" x2="-274.0" y2="-123.33333333333333" stroke="#27408b" fill="none" stroke-width="10.0" stroke-linecap="round"/><line x1="-274.0" y1="-123.33333333333333" x2="-274.0" y2="-213.33333333333331" stroke="#a0522d" fill="none" stroke-width="10.0" stroke-linecap="round"/><line x1="-274.0" y1="-213.33333333333331" x2="-274.0" y2="-233.33333333333331" stroke="#8b4513" fill="none" stroke-width="10.0" stroke-linecap="round"/><line x1="-274.0" y1="-233.33333333333331" x2="-274.0" y2="-253.33333333333331" stroke="#87ceeb" fill="none" stroke-width="10.0" stroke-linecap="round"/><line x1="-264.0" y1="-0.0" x2="-264.0" y2="-20.0" stroke="#008000" fill="none" stroke-width="10.0" stroke-linecap="round"/><line x1="-264.0" y1="-20.0" x2="-264.0" y2="-30.0" stroke="#fff" fill="none" stroke-width="10.0" stroke-linecap="round"/><line x1="-264.0" y1="-30.0" x2="-264.0" y2="-60.0" stroke="#ff8c00" fill="none" stroke-width="10.0" stroke-linecap="round"/><line x1="-264.0" y1="-60.0" x2="-264.0" y2="-70.0" stroke="#fff" fill="none" stroke-width="10.0" stroke-linecap="round"/><line x1="-264.0" y1="-70.0" x2="-264.0" y2="-90.0" stroke="#008000" fill="none" stroke-width="10.0" stroke-linecap="round"/><line x1="-264.0" y1="-90.0" x2="-264.0" y2="-120.0" stroke="#27408b" fill="none" stroke-width="10.0" stroke-linecap="round"/><line x1="-264.0" y1="-120.0" x2="-264.0" y2="-180.0" stroke="#a0522d" fill="none" stroke-width="10.0" stroke-linecap="round"/><line x1="-264.0" y1="-180.0" x2="-264.0" y2="-200.0" stroke="#8b4513" fill="none" stroke-width="10.0" stroke-linecap="round"/><polyline points="-264.0,-200.0 -264.0,-230.0 -264.0,-250.0" stroke="#87ceeb" fill="none" stroke-width="10.0" stroke-linecap="round" stroke-linejoin="round"/><line x1="-254.0" y1="3.3333333333333335" x2="-254.0" y2="-16.666666666666668" stroke="#008000" fill="none" stroke-width="10.0" stroke-linecap="round"/><line x1="-254.0" y1="-16.666666666666668" x2="-254.0" y2="-66.66666666666667" stroke="#ff8c00" fill="none" stroke-width="10.0" stroke-linecap="round"/><line x1="-254.0" y1="-66.66666666666667" x2="-254.0" y2="-86.66666666666667" stroke="#008000" fill="none" stroke-width="10.0" stroke-linecap="round"/><line x1="-254.0" y1="-86.66666666666667" x2="-254.0" y2="-116.66666666666667" stroke="#27408b" fill="none" stroke-width="10.0" stroke-linecap="round"/><line x1="-254.0" y1="-116.66666666666667" x2="-254.0" y2="-146.66666666666669" stroke="#a0522d" fill="none" stroke-width="10.0" stroke-linecap="round"/><line x1="-254.0" y1="-146.66666666666669" x2="-254.0" y2="-166.66666666666669" stroke="#8b4513" fill="none" stroke-width="10.0" stroke-linecap="round"/><polyline points="-254.0,-166.66666666666669 -254.0,-226.66666666666669 -254.0,-246.66666666666669" stroke="#87ceeb" fill="none" stroke-width="10.0" stroke-linecap="round" stroke-linejoin="round"/><line x1="-244.0" y1="-0.0" x2="-244.0" y2="-20.0" stroke="#008000" fill="none" stroke-width="10.0" stroke-linecap="round"/><line x1="-244.0" y1="-20.0" x2="-244.0" y2="-30.0" stroke="#fff" fill="none" stroke-width="10.0" stroke-linecap="round"/><line x1="-244.0" y1="-30.0" x2="-244.0" y2="-60.0" stroke="#ff8c00" fill="none" stroke-width="10.0" stroke-linecap="round"/><line x1="-244.0" y1="-60.0" x2="-244.0" y2="-70.0" stroke="#fff" fill="none" stroke-width="10.0" stroke-linecap="round"/><line x1="-244.0" y1="-70.0" x2="-244.0" y2="-90.0" stroke="#008000" fill="none" stroke-width="10.0" stroke-linecap="round"/><line x1="-244.0" y1="-90.0" x2="-244.0" y2="-120.0" stroke="#27408b" fill="none" stroke-width="10.0" stroke-linecap="round"/><line x1="-244.0" y1="-120.0" x2="-244.0" y2="-180.0" stroke="#a0522d" fill="none" stroke-width="10.0" stroke-linecap="round"/><line x1="-244.0" y1="-180.0" x2="-244.0" y2="-200.0" stroke="#8b4513" fill="none" stroke-width="10.0" stroke-linecap="round"/><polyline points="-244.0,-200.0 -244.0,-230.0 -244.0,-250.0" stroke="#87ceeb" fill="none" stroke-width="10.0" stroke-linecap="round" stroke-linejoin="round"/><line x1="-234.0" y1="-3.3333333333333335" x2="-234.0" y2="-23.333333333333332" stroke="#008000" fill="none" stroke-width="10.0" stroke-linecap="round"/><line x1="-234.0" y1="-23.333333333333332" x2="-234.0" y2="-43.33333333333333" stroke="#fff" fill="none" stroke-width="10.0" stroke-linecap="round"/><line x1="-234.0" y1="-43.33333333333333" x2="-234.0" y2="-53.33333333333333" stroke="#ff8c00" fill="none" stroke-width="10.0" stroke-linecap="round"/><line x1="-234.0" y1="-53.33333333333333" x2="-234.0" y2="-73.33333333333333" stroke="#fff" fill="none" stroke-width="10.0" stroke-linecap="round"/><line x1="-234.0" y1="-73.33333333333333" x2="-234.0" y2="-93.33333333333333" stroke="#008000" fill="none" stroke-width="10.0" stroke-linecap="round"/><line x1="-234.0" y1="-93.33333333333333" x2="-234.0" y2="-123.33333333333333" stroke="#27408b" fill="none" stroke-width="10.0" stroke-linecap="round"/><line x1="-234.0" y1="-123.33333333333333" x2="-234.0" y2="-213.33333333333331" stroke="#a0522d" fill="none" stroke-width="10.0" stroke-linecap="round"/><line x1="-234.0" y1="-213.33333333333331" x2="-234.0" y2="-233.33333333333331" stroke="#8b4513" fill="none" stroke-width="10.0" stroke-linecap="round"/><line x1="-234.0" y1="-233.33333333333331" x2="-234.0" y2="-253.33333333333331" stroke="#87ceeb" fill="none" stroke-width="10.0" stroke-linecap="round"/><line x1="-224.0" y1="-0.0" x2="-224.0" y2="-20.0" stroke="#008000" fill="none" stroke-width="10.0" stroke-linecap="round"/><line x1="-224.0" y1="-20.0" x2="-224.0" y2="-30.0" stroke="#fff" fill="none" stroke-width="10.0" stroke-linecap="round"/><line x1="-224.0" y1="-30.0" x2="-224.0" y2="-60.0" stroke="#ff8c00" fill="none" stroke-width="10.0" stroke-linecap="round"/><line x1="-224.0" y1="-60.0" x2="-224.0" y2="-70.0" stroke="#fff" fill="none" stroke-width="10.0" stroke-linecap="round"/><line x1="-224.0" y1="-70.0" x2="-224.0" y2="-90.0" stroke="#008000" fill="none" stroke-width="10.0" stroke-linecap="round"/><line x1="-224.0" y1="-90.0" x2="-224.0" y2="-120.0" stroke="#27408b" fill="none" stroke-width="10.0" stroke-linecap="round"/><line x1="-224.0" y1="-120.0" x2="-224.0" y2="-180.0" stroke="#a0522d" fill="none" stroke-width="10.0" stroke-linecap="round"/><line x1="-224.0" y1="-180.0" x2="-224.0" y2="-200.0" stroke="#8b4513" fill="none" stroke-width="10.0" stroke-linecap="round"/><polyline points="-224.0,-200.0 -224.0,-230.0 -224.0,-250.0" stroke="#87ceeb" fill="none" stroke-width="10.0" stroke-linecap="round" stroke-linejoin="round"/><line x1="-214.0" y1="3.3333333333333335" x2="-214.0" y2="-16.666666666666668" stroke="#008000" fill="none" stroke-width="10.0" stroke-linecap="round"/><line x1="-214.0" y1="-16.666666666666668" x2="-214.0" y2="-66.66666666666667" stroke="#ff8c00" fill="none" stroke-width="10.0" stroke-linecap="round"/><line x1="-214.0" y1="-66.66666666666667" x2="-214.0" y2="-86.66666666666667" stroke="#008000" fill="none" stroke-width="10.0" stroke-linecap="round"/><line x1="-214.0" y1="-86.66666666666667" x2="-214.0" y2="-116.66666666666667" stroke="#27408b" fill="none" stroke-width="10.0" stroke-linecap="round"/><line x1="-214.0" y1="-116.66666666666667" x2="-214.0" y2="-146.66666666666669" stroke="#a0522d" fill="none" stroke-width="10.0" stroke-linecap="round"/><line x1="-214.0" y1="-146.66666666666669" x2="-214.0" y2="-166.66666666666669" stroke="#8b4513" fill="none" stroke-width="10.0" stroke-linecap="round"/><polyline points="-214.0,-166.66666666666669 -214.0,-226.66666666666669 -214.0,-246.66666666666669" stroke="#87ceeb" fill="none" stroke-width="10.0" stroke-linecap="round" stroke-linejoin="round"/><line x1="-204.0" y1="-0.0" x2="-204.0" y2="-20.0" stroke="#008000" fill="none" stroke-width="10.0" stroke-linecap="round"/><line x1="-204.0" y1="-20.0" x2="-204.0" y2="-30.0" stroke="#fff" fill="none" stroke-width="10.0" stroke-linecap="round"/><line x1="-204.0" y1="-30.0" x2="-204.0" y2="-60.0" stroke="#ff8c00" fill="none" stroke-width="10.0" stroke-linecap="round"/><line x1="-204.0" y1="-60.0" x2="-204.0" y2="-70.0" stroke="#fff" fill="none" stroke-width="10.0" stroke-linecap="round"/><line x1="-204.0" y1="-70.0" x2="-204.0" y2="-90.0" stroke="#008000" fill="none" stroke-width="10.0" stroke-linecap="round"/><line x1="-204.0" y1="-90.0" x2="-204.0" y2="-120.0" stroke="#27408b" fill="none" stroke-width="10.0" stroke-linecap="round"/><line x1="-204.0" y1="-120.0" x2="-204.0" y2="-180.0" stroke="#a0522d" fill="none" stroke-width="10.0" stroke-linecap="round"/><line x1="-204.0" y1="-180.0" x2="-204.0" y2="-200.0" stroke="#8b4513" fill="none" stroke-width="10.0" stroke-linecap="round"/><polyline points="-204.0,-200.0 -204.0,-230.0 -204.0,-250.0" stroke="#87ceeb" fill="none" stroke-width="10.0" stroke-linecap="round" stroke-linejoin="round"/><line x1="-194.0" y1="-3.3333333333333335" x2="-194.0" y2="-23.333333333333332" stroke="#008000" fill="none" stroke-width="10.0" stroke-linecap="round"/><line x1="-194.0" y1="-23.333333333333332" x2="-194.0" y2="-43.33333333333333" stroke="#fff" fill="none" stroke-width="10.0" stroke-linecap="round"/><line x1="-194.0" y1="-43.33333333333333" x2="-194.0" y2="-53.33333333333333" stroke="#ff8c00" fill="none" stroke-width="10.0" stroke-linecap="round"/><line x1="-194.0" y1="-53.33333333333333" x2="-194.0" y2="-73.33333333333333" stroke="#fff" fill="none" stroke-width="10.0" stroke-linecap="round"/><line x1="-194.0" y1="-73.33333333333333" x2="-194.0" y2="-93.33333333333333" stroke="#008000" fill="none" stroke-width="10.0" stroke-linecap="round"/><line x1="-194.0" y1="-93.33333333333333" x2="-194.0" y2="-123.33333333333333" stroke="#27408b" fill="none" stroke-width="10.0" stroke-linecap="round"/><line x1="-194.0" y1="-123.33333333333333" x2="-194.0" y2="-213.33333333333331" stroke="#a0522d" fill="none" stroke-width="10.0" stroke-linecap="round"/><line x1="-194.0" y1="-213.33333333333331" x2="-194.0" y2="-233.33333333333331" stroke="#8b4513" fill="none" stroke-width="10.0" stroke-linecap="round"/><line x1="-194.0" y1="-233.33333333333331" x2="-194.0" y2="-253.33333333333331" stroke="#87ceeb" fill="none" stroke-width="10.0" stroke-linecap="round"/><line x1="-184.0" y1="-0.0" x2="-184.0" y2="-20.0" stroke="#008000" fill="none" stroke-width="10.0" stroke-linecap="round"/><line x1="-184.0" y1="-20.0" x2="-184.0" y2="-30.0" stroke="#fff" fill="none" stroke-width="10.0" stroke-linecap="round"/><line x1="-184.0" y1="-30.0" x2="-184.0" y2="-60.0" stroke="#ff8c00" fill="none" stroke-width="10.0" stroke-linecap="round"/><line x1="-184.0" y1="-60.0" x2="-184.0" y2="-70.0" stroke="#fff" fill="none" stroke-width="10.0" stroke-linecap="round"/><line x1="-184.0" y1="-70.0" x2="-184.0" y2="-90.0" stroke="#008000" fill="none" stroke-width="10.0" stroke-linecap="round"/><line x1="-184.0" y1="-90.0" x2="-184.0" y2="-120.0" stroke="#27408b" fill="none" stroke-width="10.0" stroke-linecap="round"/><line x1="-184.0" y1="-120.0" x2="-184.0" y2="-180.0" stroke="#a0522d" fill="none" stroke-width="10.0" stroke-linecap="round"/><line x1="-184.0" y1="-180.0" x2="-184.0" y2="-200.0" stroke="#8b4513" fill="none" stroke-width="10.0" stroke-linecap="round"/><polyline points="-184.0,-200.0 -184.0,-230.0 -184.0,-250.0" stroke="#87ceeb" fill="none" stroke-width="10.0" stroke-linecap="round" stroke-linejoin="round"/><line x1="-174.0" y1="3.3333333333333335" x2="-174.0" y2="-16.666666666666668" stroke="#008000" fill="none" stroke-width="10.0" stroke-linecap="round"/><line x1="-174.0" y1="-16.666666666666668" x2="-174.0" y2="-66.66666666666667" stroke="#ff8c00" fill="none" stroke-width="10.0" stroke-linecap="round"/><line x1="-174.0" y1="-66.66666666666667" x2="-174.0" y2="-86.66666666666667" stroke="#008000" fill="none" stroke-width="10.0" stroke-linecap="round"/><line x1="-174.0" y1="-86.66666666666667" x2="-174.0" y2="-116.66666666666667" stroke="#27408b" fill="none" stroke-width="10.0" stroke-linecap="round"/><line x1="-174.0" y1="-116.66666666666667" x2="-174.0" y2="-146.66666666666669" stroke="#a0522d" fill="none" stroke-width="10.0" stroke-linecap="round"/><line x1="-174.0" y1="-146.66666666666669" x2="-174.0" y2="-166.66666666666669" stroke="#8b4513" fill="none" stroke-width="10.0" stroke-linecap="round"/><polyline points="-174.0,-166.66666666666669 -174.0,-226.66666666666669 -174.0,-246.66666666666669" stroke="#87ceeb" fill="none" stroke-width="10.0" stroke-linecap="round" stroke-linejoin="round"/><line x1="-164.0" y1="-0.0" x2="-164.0" y2="-20.0" stroke="#008000" fill="none" stroke-width="10.0" stroke-linecap="round"/><line x1="-164.0" y1="-20.0" x2="-164.0" y2="-30.0" stroke="#fff" fill="none" stroke-width="10.0" stroke-linecap="round"/><line x1="-164.0" y1="-30.0" x2="-164.0" y2="-60.0" stroke="#ff8c00" fill="none" stroke-width="10.0" stroke-linecap="round"/><line x1="-164.0" y1="-60.0" x2="-164.0" y2="-70.0" stroke="#fff" fill="none" stroke-width="10.0" stroke-linecap="round"/><line x1="-164.0" y1="-70.0" x2="-164.0" y2="-90.0" stroke="#008000" fill="none" stroke-width="10.0" stroke-linecap="round"/><line x1="-164.0" y1="-90.0" x2="-164.0" y2="-120.0" stroke="#27408b" fill="none" stroke-width="10.0" stroke-linecap="round"/><line x1="-164.0" y1="-120.0" x2="-164.0" y2="-180.0" stroke="#a0522d" fill="none" stroke-width="10.0" stroke-linecap="round"/><line x1="-164.0" y1="-180.0" x2="-164.0" y2="-200.0" stroke="#8b4513" fill="none" stroke-width="10.0" stroke-linecap="round"/><polyline points="-164.0,-200.0 -164.0,-230.0 -164.0,-250.0" stroke="#87ceeb" fill="none" stroke-width="10.0" stroke-linecap="round" stroke-linejoin="round"/><line x1="-154.0" y1="-3.3333333333333335" x2="-154.0" y2="-23.333333333333332" stroke="#008000" fill="none" stroke-width="10.0" stroke-linecap="round"/><line x1="-154.0" y1="-23.333333333333332" x2="-154.0" y2="-43.33333333333333" stroke="#fff" fill="none" stroke-width="10.0" stroke-linecap="round"/><line x1="-154.0" y1="-43.33333333333333" x2="-154.0" y2="-53.33333333333333" stroke="#ff8c00" fill="none" stroke-width="10.0" stroke-linecap="round"/><line x1="-154.0" y1="-53.33333333333333" x2="-154.0" y2="-73.33333333333333" stroke="#fff" fill="none" stroke-width="10.0" stroke-linecap="round"/><line x1="-154.0" y1="-73.33333333333333" x2="-154.0" y2="-93.33333333333333" stroke="#008000" fill="none" stroke-width="10.0" stroke-linecap="round"/><line x1="-154.0" y1="-93.33333333333333" x2="-154.0" y2="-123.33333333333333" stroke="#27408b" fill="none" stroke-width="10.0" stroke-linecap="round"/><line x1="-154.0" y1="-123.33333333333333" x2="-154.0" y2="-213.33333333333331" stroke="#a0522d" fill="none" stroke-width="10.0" stroke-linecap="round"/><line x1="-154.0" y1="-213.33333333333331" x2="-154.0" y2="-233.33333333333331" stroke="#8b4513" fill="none" stroke-width="10.0" stroke-linecap="round"/><line x1="-154.0" y1="-233.33333333333331" x2="-154.0" y2="-253.33333333333331" stroke="#87ceeb" fill="none" stroke-width="10.0" stroke-linecap="round"/><line x1="-144.0" y1="-0.0" x2="-144.0" y2="-20.0" stroke="#008000" fill="none" stroke-width="10.0" stroke-linecap="round"/><line x1="-144.0" y1="-20.0" x2="-144.0" y2="-30.0" stroke="#fff" fill="none" stroke-width="10.0" stroke-linecap="round"/><line x1="-144.0" y1="-30.0" x2="-144.0" y2="-60.0" stroke="#ff8c00" fill="none" stroke-width="10.0" stroke-linecap="round"/><line x1="-144.0" y1="-60.0" x2="-144.0" y2="-70.0" stroke="#fff" fill="none" stroke-width="10.0" stroke-linecap="round"/><line x1="-144.0" y1="-70.0" x2="-144.0" y2="-90.0" stroke="#008000" fill="none" stroke-width="10.0" stroke-linecap="round"/><line x1="-144.0" y1="-90.0" x2="-144.0" y2="-120.0" stroke="#27408b" fill="none" stroke-width="10.0" stroke-linecap="round"/><line x1="-144.0" y1="-120.0" x2="-144.0" y2="-180.0" stroke="#a0522d" fill="none" stroke-width="10.0" stroke-linecap="round"/><line x1="-144.0" y1="-180.0" x2="-144.0" y2="-200.0" stroke="#8b4513" fill="none" stroke-width="10.0" stroke-linecap="round"/><polyline points="-144.0,-200.0 -144.0,-230.0 -144.0,-250.0" stroke="#87ceeb" fill="none" stroke-width="10.0" stroke-linecap="round" stroke-linejoin="round"/><line x1="-134.0" y1="3.3333333333333335" x2="-134.0" y2="-16.666666666666668" stroke="#008000" fill="none" stroke-width="10.0" stroke-linecap="round"/><line x1="-134.0" y1="-16.666666666666668" x2="-134.0" y2="-66.66666666666667" stroke="#ff8c00" fill="none" stroke-width="10.0" stroke-linecap="round"/><line x1="-134.0" y1="-66.66666666666667" x2="-134.0" y2="-86.66666666666667" stroke="#008000" fill="none" stroke-width="10.0" stroke-linecap="round"/><line x1="-134.0" y1="-86.66666666666667" x2="-134.0" y2="-116.66666666666667" stroke="#27408b" fill="none" stroke-width="10.0" stroke-linecap="round"/><line x1="-134.0" y1="-116.66666666666667" x2="-134.0" y2="-146.66666666666669" stroke="#a0522d" fill="none" stroke-width="10.0" stroke-linecap="round"/><line x1="-134.0" y1="-146.66666666666669" x2="-134.0" y2="-166.66666666666669" stroke="#8b4513" fill="none" stroke-width="10.0" stroke-linecap="round"/><polyline points="-134.0,-166.66666666666669 -134.0,-226.66666666666669 -134.0,-246.66666666666669" stroke="#87ceeb" fill="none" stroke-width="10.0" stroke-linecap="round" stroke-linejoin="round"/><line x1="-124.0" y1="-0.0" x2="-124.0" y2="-20.0" stroke="#008000" fill="none" stroke-width="10.0" stroke-linecap="round"/><line x1="-124.0" y1="-20.0" x2="-124.0" y2="-30.0" stroke="#fff" fill="none" stroke-width="10.0" stroke-linecap="round"/><line x1="-124.0" y1="-30.0" x2="-124.0" y2="-60.0" stroke="#ff8c00" fill="none" stroke-width="10.0" stroke-linecap="round"/><line x1="-124.0" y1="-60.0" x2="-124.0" y2="-70.0" stroke="#fff" fill="none" stroke-width="10.0" stroke-linecap="round"/><line x1="-124.0" y1="-70.0" x2="-124.0" y2="-90.0" stroke="#008000" fill="none" stroke-width="10.0" stroke-linecap="round"/><line x1="-124.0" y1="-90.0" x2="-124.0" y2="-120.0" stroke="#27408b" fill="none" stroke-width="10.0" stroke-linecap="round"/><line x1="-124.0" y1="-120.0" x2="-124.0" y2="-180.0" stroke="#a0522d" fill="none" stroke-width="10.0" stroke-linecap="round"/><line x1="-124.0" y1="-180.0" x2="-124.0" y2="-200.0" stroke="#8b4513" fill="none" stroke-width="10.0" stroke-linecap="round"/><polyline points="-124.0,-200.0 -124.0,-230.0 -124.0,-250.0" stroke="#87ceeb" fill="none" stroke-width="10.0" stroke-linecap="round" stroke-linejoin="round"/><line x1="-114.0" y1="-3.3333333333333335" x2="-114.0" y2="-23.333333333333332" stroke="#008000" fill="none" stroke-width="10.0" stroke-linecap="round"/><line x1="-114.0" y1="-23.333333333333332" x2="-114.0" y2="-43.33333333333333" stroke="#fff" fill="none" stroke-width="10.0" stroke-linecap="round"/><line x1="-114.0" y1="-43.33333333333333" x2="-114.0" y2="-53.33333333333333" stroke="#ff8c00" fill="none" stroke-width="10.0" stroke-linecap="round"/><line x1="-114.0" y1="-53.33333333333333" x2="-114.0" y2="-73.33333333333333" stroke="#fff" fill="none" stroke-width="10.0" stroke-linecap="round"/><line x1="-114.0" y1="-73.33333333333333" x2="-114.0" y2="-93.33333333333333" stroke="#008000" fill="none" stroke-width="10.0" stroke-linecap="round"/><line x1="-114.0" y1="-93.33333333333333" x2="-114.0" y2="-123.33333333333333" stroke="#27408b" fill="none" stroke-width="10.0" stroke-linecap="round"/><line x1="-114.0" y1="-123.33333333333333" x2="-114.0" y2="-213.33333333333331" stroke="#a0522d" fill="none" stroke-width="10.0" stroke-linecap="round"/><line x1="-114.0" y1="-213.33333333333331" x2="-114.0" y2="-233.33333333333331" stroke="#8b4513" fill="none" stroke-width="10.0" stroke-linecap="round"/><line x1="-114.0" y1="-233.33333333333331" x2="-114.0" y2="-253.33333333333331" stroke="#87ceeb" fill="none" stroke-width="10.0" stroke-linecap="round"/><line x1="-104.0" y1="-0.0" x2="-104.0" y2="-20.0" stroke="#008000" fill="none" stroke-width="10.0" stroke-linecap="round"/><line x1="-104.0" y1="-20.0" x2="-104.0" y2="-30.0" stroke="#fff" fill="none" stroke-width="10.0" stroke-linecap="round"/><line x1="-104.0" y1="-30.0" x2="-104.0" y2="-60.0" stroke="#ff8c00" fill="none" stroke-width="10.0" stroke-linecap="round"/><line x1="-104.0" y1="-60.0" x2="-104.0" y2="-70.0" stroke="#fff" fill="none" stroke-width="10.0" stroke-linecap="round"/><line x1="-104.0" y1="-70.0" x2="-104.0" y2="-90.0" stroke="#008000" fill="none" stroke-width="10.0" stroke-linecap="round"/><line x1="-104.0" y1="-90.0" x2="-104.0" y2="-120.0" stroke="#27408b" fill="none" stroke-width="10.0" stroke-linecap="round"/><line x1="-104.0" y1="-120.0" x2="-104.0" y2="-180.0" stroke="#a0522d" fill="none" stroke-width="10.0" stroke-linecap="round"/><line x1="-104.0" y1="-180.0" x2="-104.0" y2="-200.0" stroke="#8b4513" fill="none" stroke-width="10.0" stroke-linecap="round"/><polyline points="-104.0,-200.0 -104.0,-230.0 -104.0,-250.0" stroke="#87ceeb" fill="none" stroke-width="10.0" stroke-linecap="round" stroke-linejoin="round"/><line x1="-94.0" y1="3.3333333333333335" x2="-94.0" y2="-16.666666666666668" stroke="#008000" fill="none" stroke-width="10.0" stroke-linecap="round"/><line x1="-94.0" y1="-16.666666666666668" x2="-94.0" y2="-66.66666666666667" stroke="#ff8c00" fill="none" stroke-width="10.0" stroke-linecap="round"/><line x1="-94.0" y1="-66.66666666666667" x2="-94.0" y2="-86.66666666666667" stroke="#008000" fill="none" stroke-width="10.0" stroke-linecap="round"/><line x1="-94.0" y1="-86.66666666666667" x2="-94.0" y2="-116.66666666666667" stroke="#27408b" fill="none" stroke-width="10.0" stroke-linecap="round"/><line x1="-94.0" y1="-116.66666666666667" x2="-94.0" y2="-146.66666666666669" stroke="#a0522d" fill="none" stroke-width="10.0" stroke-linecap="round"/><line x1="-94.0" y1="-146.66666666666669" x2="-94.0" y2="-166.66666666666669" stroke="#8b4513" fill="none" stroke-width="10.0" stroke-linecap="round"/><polyline points="-94.0,-166.66666666666669 -94.0,-226.66666666666669 -94.0,-246.66666666666669" stroke="#87ceeb" fill="none" stroke-width="10.0" stroke-linecap="round" stroke-linejoin="round"/><line x1="-84.0" y1="-0.0" x2="-84.0" y2="-20.0" stroke="#008000" fill="none" stroke-width="10.0" stroke-linecap="round"/><line x1="-84.0" y1="-20.0" x2="-84.0" y2="-30.0" stroke="#fff" fill="none" stroke-width="10.0" stroke-linecap="round"/><line x1="-84.0" y1="-30.0" x2="-84.0" y2="-60.0" stroke="#ff8c00" fill="none" stroke-width="10.0" stroke-linecap="round"/><line x1="-84.0" y1="-60.0" x2="-84.0" y2="-70.0" stroke="#fff" fill="none" stroke-width="10.0" stroke-linecap="round"/><line x1="-84.0" y1="-70.0" x2="-84.0" y2="-90.0" stroke="#008000" fill="none" stroke-width="10.0" stroke-linecap="round"/><line x1="-84.0" y1="-90.0" x2="-84.0" y2="-120.0" stroke="#27408b" fill="none" stroke-width="10.0" stroke-linecap="round"/><line x1="-84.0" y1="-120.0" x2="-84.0" y2="-180.0" stroke="#a0522d" fill="none" stroke-width="10.0" stroke-linecap="round"/><line x1="-84.0" y1="-180.0" x2="-84.0" y2="-200.0" stroke="#8b4513" fill="none" stroke-width="10.0" stroke-linecap="round"/><polyline points="-84.0,-200.0 -84.0,-230.0 -84.0,-250.0" stroke="#87ceeb" fill="none" stroke-width="10.0" stroke-linecap="round" stroke-linejoin="round"/><line x1="-74.0" y1="-3.3333333333333335" x2="-74.0" y2="-23.333333333333332" stroke="#008000" fill="none" stroke-width="10.0" stroke-linecap="round"/><line x1="-74.0" y1="-23.333333333333332" x2="-74.0" y2="-43.33333333333333" stroke="#fff" fill="none" stroke-width="10.0" stroke-linecap="round"/><line x1="-74.0" y1="-43.33333333333333" x2="-74.0" y2="-53.33333333333333" stroke="#ff8c00" fill="none" stroke-width="10.0" stroke-linecap="round"/><line x1="-74.0" y1="-53.33333333333333" x2="-74.0" y2="-73.33333333333333" stroke="#fff" fill="none" stroke-width="10.0" stroke-linecap="round"/><line x1="-74.0" y1="-73.33333333333333" x2="-74.0" y2="-93.33333333333333" stroke="#008000" fill="none" stroke-width="10.0" stroke-linecap="round"/><line x1="-74.0" y1="-93.33333333333333" x2="-74.0" y2="-123.33333333333333" stroke="#27408b" fill="none" stroke-width="10.0" stroke-linecap="round"/><line x1="-74.0" y1="-123.33333333333333" x2="-74.0" y2="-213.33333333333331" stroke="#a0522d" fill="none" stroke-width="10.0" stroke-linecap="round"/><line x1="-74.0" y1="-213.33333333333331" x2="-74.0" y2="-233.33333333333331" stroke="#8b4513" fill="none" stroke-width="10.0" stroke-linecap="round"/><line x1="-74.0" y1="-233.33333333333331" x2="-74.0" y2="-253.33333333333331" stroke="#87ceeb" fill="none" stroke-width="10.0" stroke-linecap="round"/><line x1="-64.0" y1="-0.0" x2="-64.0" y2="-20.0" stroke="#008000" fill="none" stroke-width="10.0" stroke-linecap="round"/><line x1="-64.0" y1="-20.0" x2="-64.0" y2="-30.0" stroke="#fff" fill="none" stroke-width="10.0" stroke-linecap="round"/><line x1="-64.0" y1="-30.0" x2="-64.0" y2="-60.0" stroke="#ff8c00" fill="none" stroke-width="10.0" stroke-linecap="round"/><line x1="-64.0" y1="-60.0" x2="-64.0" y2="-70.0" stroke="#fff" fill="none" stroke-width="10.0" stroke-linecap="round"/><line x1="-64.0" y1="-70.0" x2="-64.0" y2="-90.0" stroke="#008000" fill="none" stroke-width="10.0" stroke-linecap="round"/><line x1="-64.0" y1="-90.0" x2="-64.0" y2="-120.0" stroke="#27408b" fill="none" stroke-width="10.0" stroke-linecap="round"/><line x1="-64.0" y1="-120.0" x2="-64.0" y2="-180.0" stroke="#a0522d" fill="none" stroke-width="10.0" stroke-linecap="round"/><line x1="-64.0" y1="-180.0" x2="-64.0" y2="-200.0" stroke="#8b4513" fill="none" stroke-width="10.0" stroke-linecap="round"/><polyline points="-64.0,-200.0 -64.0,-230.0 -64.0,-250.0" stroke="#87ceeb" fill="none" stroke-width="10.0" stroke-linecap="round" stroke-linejoin="round"/><line x1="-54.0" y1="3.3333333333333335" x2="-54.0" y2="-16.666666666666668" stroke="#008000" fill="none" stroke-width="10.0" stroke-linecap="round"/><line x1="-54.0" y1="-16.666666666666668" x2="-54.0" y2="-66.66666666666667" stroke="#ff8c00" fill="none" stroke-width="10.0" stroke-linecap="round"/><line x1="-54.0" y1="-66.66666666666667" x2="-54.0" y2="-86.66666666666667" stroke="#008000" fill="none" stroke-width="10.0" stroke-linecap="round"/><line x1="-54.0" y1="-86.66666666666667" x2="-54.0" y2="-116.66666666666667" stroke="#27408b" fill="none" stroke-width="10.0" stroke-linecap="round"/><line x1="-54.0" y1="-116.66666666666667" x2="-54.0" y2="-146.66666666666669" stroke="#a0522d" fill="none" stroke-width="10.0" stroke-linecap="round"/><line x1="-54.0" y1="-146.66666666666669" x2="-54.0" y2="-166.66666666666669" stroke="#8b4513" fill="none" stroke-width="10.0" stroke-linecap="round"/><polyline points="-54.0,-166.66666666666669 -54.0,-226.66666666666669 -54.0,-246.66666666666669" stroke="#87ceeb" fill="none" stroke-width="10.0" stroke-linecap="round" stroke-linejoin="round"/><line x1="-44.0" y1="-0.0" x2="-44.0" y2="-20.0" stroke="#008000" fill="none" stroke-width="10.0" stroke-linecap="round"/><line x1="-44.0" y1="-20.0" x2="-44.0" y2="-30.0" stroke="#fff" fill="none" stroke-width="10.0" stroke-linecap="round"/><line x1="-44.0" y1="-30.0" x2="-44.0" y2="-60.0" stroke="#ff8c00" fill="none" stroke-width="10.0" stroke-linecap="round"/><line x1="-44.0" y1="-60.0" x2="-44.0" y2="-70.0" stroke="#fff" fill="none" stroke-width="10.0" stroke-linecap="round"/><line x1="-44.0" y1="-70.0" x2="-44.0" y2="-90.0" stroke="#008000" fill="none" stroke-width="10.0" stroke-linecap="round"/><line x1="-44.0" y1="-90.0" x2="-44.0" y2="-120.0" stroke="#27408b" fill="none" stroke-width="10.0" stroke-linecap="round"/><line x1="-44.0" y1="-120.0" x2="-44.0" y2="-180.0" stroke="#a0522d" fill="none" stroke-width="10.0" stroke-linecap="round"/><line x1="-44.0" y1="-180.0" x2="-44.0" y2="-200.0" stroke="#8b4513" fill="none" stroke-width="10.0" stroke-linecap="round"/><polyline points="-44.0,-200.0 -44.0,-230.0 -44.0,-250.0" stroke="#87ceeb" fill="none" stroke-width="10.0" stroke-linecap="round" stroke-linejoin="round"/><line x1="-34.0" y1="-3.3333333333333335" x2="-34.0" y2="-23.333333333333332" stroke="#008000" fill="none" stroke-width="10.0" stroke-linecap="round"/><line x1="-34.0" y1="-23.333333333333332" x2="-34.0" y2="-43.33333333333333" stroke="#fff" fill="none" stroke-width="10.0" stroke-linecap="round"/><line x1="-34.0" y1="-43.33333333333333" x2="-34.0" y2="-53.33333333333333" stroke="#ff8c00" fill="none" stroke-width="10.0" stroke-linecap="round"/><line x1="-34.0" y1="-53.33333333333333" x2="-34.0" y2="-73.33333333333333" stroke="#fff" fill="none" stroke-width="10.0" stroke-linecap="round"/><line x1="-34.0" y1="-73.33333333333333" x2="-34.0" y2="-93.33333333333333" stroke="#008000" fill="none" stroke-width="10.0" stroke-linecap="round"/><line x1="-34.0" y1="-93.33333333333333" x2="-34.0" y2="-123.33333333333333" stroke="#27408b" fill="none" stroke-width="10.0" stroke-linecap="round"/><line x1="-34.0" y1="-123.33333333333333" x2="-34.0" y2="-213.33333333333331" stroke="#a0522d" fill="none" stroke-width="10.0" stroke-linecap="round"/><line x1="-34.0" y1="-213.33333333333331" x2="-34.0" y2="-233.33333333333331" stroke="#8b4513" fill="none" stroke-width="10.0" stroke-linecap="round"/><line x1="-34.0" y1="-233.33333333333331" x2="-34.0" y2="-253.33333333333331" stroke="#87ceeb" fill="none" stroke-width="10.0" stroke-linecap="round"/><line x1="-24.0" y1="-0.0" x2="-24.0" y2="-20.0" stroke="#008000" fill="none" stroke-width="10.0" stroke-linecap="round"/><line x1="-24.0" y1="-20.0" x2="-24.0" y2="-30.0" stroke="#fff" fill="none" stroke-width="10.0" stroke-linecap="round"/><line x1="-24.0" y1="-30.0" x2="-24.0" y2="-60.0" stroke="#ff8c00" fill="none" stroke-width="10.0" stroke-linecap="round"/><line x1="-24.0" y1="-60.0" x2="-24.0" y2="-70.0" stroke="#fff" fill="none" stroke-width="10.0" stroke-linecap="round"/><line x1="-24.0" y1="-70.0" x2="-24.0" y2="-90.0" stroke="#008000" fill="none" stroke-width="10.0" stroke-linecap="round"/><line x1="-24.0" y1="-90.0" x2="-24.0" y2="-120.0" stroke="#27408b" fill="none" stroke-width="10.0" stroke-linecap="round"/><line x1="-24.0" y1="-120.0" x2="-24.0" y2="-180.0" stroke="#a0522d" fill="none" stroke-width="10.0" stroke-linecap="round"/><line x1="-24.0" y1="-180.0" x2="-24.0" y2="-200.0" stroke="#8b4513" fill="none" stroke-width="10.0" stroke-linecap="round"/><polyline points="-24.0,-200.0 -24.0,-230.0 -24.0,-250.0" stroke="#87ceeb" fill="none" stroke-width="10.0" stroke-linecap="round" stroke-linejoin="round"/><line x1="-14.0" y1="3.3333333333333335" x2="-14.0" y2="-16.666666666666668" stroke="#008000" fill="none" stroke-width="10.0" stroke-linecap="round"/><line x1="-14.0" y1="-16.666666666666668" x2="-14.0" y2="-66.66666666666667" stroke="#ff8c00" fill="none" stroke-width="10.0" stroke-linecap="round"/><line x1="-14.0" y1="-66.66666666666667" x2="-14.0" y2="-86.66666666666667" stroke="#008000" fill="none" stroke-width="10.0" stroke-linecap="round"/><line x1="-14.0" y1="-86.66666666666667" x2="-14.0" y2="-116.66666666666667" stroke="#27408b" fill="none" stroke-width="10.0" stroke-linecap="round"/><line x1="-14.0" y1="-116.66666666666667" x2="-14.0" y2="-146.66666666666669" stroke="#a0522d" fill="none" stroke-width="10.0" stroke-linecap="round"/><line x1="-14.0" y1="-146.66666666666669" x2="-14.0" y2="-166.66666666666669" stroke="#8b4513" fill="none" stroke-width="10.0" stroke-linecap="round"/><polyline points="-14.0,-166.66666666666669 -14.0,-226.66666666666669 -14.0,-246.66666666666669" stroke="#87ceeb" fill="none" stroke-width="10.0" stroke-linecap="round" stroke-linejoin="round"/><line x1="-4.0" y1="-0.0" x2="-4.0" y2="-20.0" stroke="#008000" fill="none" stroke-width="10.0" stroke-linecap="round"/><line x1="-4.0" y1="-20.0" x2="-4.0" y2="-30.0" stroke="#fff" fill="none" stroke-width="10.0" stroke-linecap="round"/><line x1="-4.0" y1="-30.0" x2="-4.0" y2="-60.0" stroke="#ff8c00" fill="none" stroke-width="10.0" stroke-linecap="round"/><line x1="-4.0" y1="-60.0" x2="-4.0" y2="-70.0" stroke="#fff" fill="none" stroke-width="10.0" stroke-linecap="round"/><line x1="-4.0" y1="-70.0" x2="-4.0" y2="-90.0" stroke="#008000" fill="none" stroke-width="10.0" stroke-linecap="round"/><line x1="-4.0" y1="-90.0" x2="-4.0" y2="-120.0" stroke="#27408b" fill="none" stroke-width="10.0" stroke-linecap="round"/><line x1="-4.0" y1="-120.0" x2="-4.0" y2="-180.0" stroke="#a0522d" fill="none" stroke-width="10.0" stroke-linecap="round"/><line x1="-4.0" y1="-180.0" x2="-4.0" y2="-200.0" stroke="#8b4513" fill="none" stroke-width="10.0" stroke-linecap="round"/><polyline points="-4.0,-200.0 -4.0,-230.0 -4.0,-250.0" stroke="#87ceeb" fill="none" stroke-width="10.0" stroke-linecap="round" stroke-linejoin="round"/><line x1="6.0" y1="-3.3333333333333335" x2="6.0" y2="-23.333333333333332" stroke="#008000" fill="none" stroke-width="10.0" stroke-linecap="round"/><line x1="6.0" y1="-23.333333333333332" x2="6.0" y2="-43.33333333333333" stroke="#fff" fill="none" stroke-width="10.0" stroke-linecap="round"/><line x1="6.0" y1="-43.33333333333333" x2="6.0" y2="-53.33333333333333" stroke="#ff8c00" fill="none" stroke-width="10.0" stroke-linecap="round"/><line x1="6.0" y1="-53.33333333333333" x2="6.0" y2="-73.33333333333333" stroke="#fff" fill="none" stroke-width="10.0" stroke-linecap="round"/><line x1="6.0" y1="-73.33333333333333" x2="6.0" y2="-93.33333333333333" stroke="#008000" fill="none" stroke-width="10.0" stroke-linecap="round"/><line x1="6.0" y1="-93.33333333333333" x2="6.0" y2="-123.33333333333333" stroke="#27408b" fill="none" stroke-width="10.0" stroke-linecap="round"/><line x1="6.0" y1="-123.33333333333333" x2="6.0" y2="-213.33333333333331" stroke="#a0522d" fill="none" stroke-width="10.0" stroke-linecap="round"/><line x1="6.0" y1="-213.33333333333331" x2="6.0" y2="-233.33333333333331" stroke="#8b4513" fill="none" stroke-width="10.0" stroke-linecap="round"/><line x1="6.0" y1="-233.33333333333331" x2="6.0" y2="-253.33333333333331" stroke="#87ceeb" fill="none" stroke-width="10.0" stroke-linecap="round"/><line x1="0.0" y1="0.0" x2="0.0" y2="0.0" stroke="none" fill="none" stroke-width="10.0" stroke-linecap="round"/></svg>